<?xml version="1.0" encoding="utf-8"?>
<!-- Generator: Adobe Illustrator 24.0.1, SVG Export Plug-In . SVG Version: 6.00 Build 0)  -->
<svg version="1.1" id="Layer_1" xmlns="http://www.w3.org/2000/svg" xmlns:xlink="http://www.w3.org/1999/xlink" x="0px" y="0px"
	 viewBox="0 0 1500 1500" style="enable-background:new 0 0 1500 1500;" xml:space="preserve">
<g>
	<path d="M93.4,716c0.2-0.6,0.2-1,0-1c-0.4,0-3.8,5.9-3.8,6.9c0,0.4-1,2.1-2.3,3.8c-1.3,1.7-2.9,4.4-3.2,6.1
		c-0.6,1.5-1.1,2.9-1.5,3.1c-0.4,0-1.5,1.5-2.5,3.8c-1.9,3.6-2.5,5.9-1.5,6.7c0.8,0.8,1.3,0.2,1.1-1.1c-0.4-1.1-0.4-1.1,0.2-0.6
		c0.4,0.6,0.9,0,2.1-2.7c1-1.9,3.8-7.3,6.3-12c4.6-8.4,5.6-10.3,4.2-9.5c-0.6,0.4-0.8,0.2-0.2-1c0.2-0.4,0.8-0.6,1.1-0.6
		c0.4,0.2,0.8,0,0.8-0.2c0-0.4-0.2-0.6-0.4-0.6C93.4,717.2,93.4,716.6,93.4,716z"/>
	<path d="M75.2,660.5c0.6-1.1,0.6-1.4-0.4-0.4c-0.6,0.4-1.3,1.7-1.9,2.9c-0.8,1.1-0.9,2.1-0.8,2.1C72.5,665,74.4,662.4,75.2,660.5z"
		/>
	<path d="M53.2,739.9c0-0.2-0.4-0.4-0.8-0.4c-0.8,0-1.5,1.5-1.5,2.9C50.9,743,53.2,740.7,53.2,739.9z"/>
	<path d="M143.8,713c0-0.6,0.2-1.5,0.6-1.9c0.6-0.8,3.2-9.7,6.5-21c0.6-2.1,1.7-5.7,2.5-8c0.8-2.3,2.3-7.1,3.4-10.5
		c0.9-3.2,2.5-8.2,3.4-10.5c1.5-4.6,1.9-7.4,0.9-5.7c-0.6,0.6-8,22.9-9.2,27.3c-0.2,1.1-2.1,6.5-3.8,12c-2.9,9-5.5,18-5.5,18.9
		c0,0.2,0.2,0.4,0.6,0.4C143.6,713.9,143.8,713.5,143.8,713z"/>
	<path d="M126.2,791.1c-0.6,3-1.1,5.7-1.1,6.3c-0.2,0.4-0.2,0.9,0.2,0.9c0.8,0,0.8-0.4,2.1-6.9c0.9-5.2,0.9-5.7,0.4-5.7
		C127.5,785.8,126.8,788.2,126.2,791.1z"/>
	<path d="M136,747.2c0.8-4,0.8-4.8,1.3-7.1c0.6-2.3,0.6-3.2-0.2-2.7c-0.4,0.4-2.5,10.1-2.5,11.3C134.6,750.2,135.6,749.3,136,747.2z
		"/>
	<path d="M130.8,773.5c1-4.2,1-5,0.4-5c-0.2,0-0.8,1.3-0.9,2.9c-0.2,1.4-1,4.8-1.5,7.7c-0.6,2.5-0.9,5-0.9,5.2
		c0,0.8,1.1-0.9,1.3-2.3C129.3,780.6,130,777.2,130.8,773.5z"/>
	<path d="M140.7,721c-0.2,0.2-0.4,0.8-0.4,1.1c0,1.7,0.9,0.4,1.5-2.1c0.6-1.3,0.9-3.2,1.1-3.8c0.2-0.8,0-1.1-0.2-1.1
		c-0.6,0-1.5,3.1-1.5,5C141.1,720.4,140.9,720.8,140.7,721z"/>
	<path d="M139.2,732.5c0.6-1.5,1.3-6.9,0.9-6.5c-0.8,0.8-2.1,6.3-1.7,6.9C138.6,733.2,139,733,139.2,732.5z"/>
	<path d="M411.3,748.5c3.4-4,3.8-4.8,4.8-7.8c1.5-5.9,1.1-6.1-3.6-1.1c-1.9,1.7-5.3,4.6-7.8,6.3c-4,2.7-5,3.1-7.2,3.2
		c-1.5,0.2-2.9,0.2-3.2,0c-1.4-0.8-2.5-4.4-3.8-11.8c-0.6-4.2-1.5-8.6-1.9-9.9c-0.8-2.7-2.7-5.7-4.2-6.7c-0.4-0.2-0.9-0.9-1.3-1.5
		c-1-1.9-6.9-3.1-9.4-1.9c-2.9,1.3-5.9,4-10.7,9.5c-4.6,5.4-14.3,18.3-15.1,20.1c-1,2.1,0.9,0.2,3.1-3.2c3.6-5.4,12-16,15.7-19.7
		c1.5-1.5,6.3-5.4,6.9-5.4c0.2,0-0.9,1.1-2.7,2.7c-3.6,3.2-15.5,17.6-19.8,24.3c-1.7,2.3-4.8,7.4-7.1,10.9c-3.8,6.5-5.2,8-3.4,4.4
		c0.9-1.9,5.5-9.5,5.9-10.1c0.2-0.2,0.6-0.8,0.8-1.3c0.8-2.1-0.4-1-2.3,1.9c-1.1,1.7-1.9,3-2.1,3c-0.3,0,0.3-1.4,1.9-5.5
		c0.9-0.8,1.1-1.3,0.6-1.5c0.5-1.3,1.1-2.8,1.9-4.7c2.1-5,4.4-10.7,5.2-12.8c1.4-4.2,4.4-10.3,7.8-16.2c1.1-1.9,2.1-3.8,2.1-4.2
		s0.2-1.4,0.6-2.1c0.9-1.9,0.9-3.4,0-3.4c-0.4,0-0.9-0.4-1.5-0.9c-0.8-1.1-0.8-1.1-5.7-0.2c-0.6,0-0.9,0.4-0.9,0.6
		c0,0.4-0.4,0.9-0.8,1.5c-0.6,0.4-1.9,2.7-2.9,4.8c-1.1,2.3-2.9,5.5-3.8,7.4c-2.9,5.2-4.4,8.4-6.7,13.6c-1.1,2.7-2.9,6.9-4,9.5
		c-1.1,2.5-2.7,6.5-3.6,8.6c-0.9,2.3-2.5,6.1-3.4,8.4c-0.2,0.5-0.4,0.9-0.6,1.4c-0.4,0.4-0.7,0.7-1.1,1.1c-3.4,3.2-5.7,5.2-5.9,4.8
		c-0.4-0.4-2.3,0.8-5.2,3.4c-10.7,9.2-18,14.1-27.3,18.3c-4.2,1.9-7.2,2.5-9.5,1.9c-1.4-0.2-1.4-0.6-1.4-3.6
		c0-4.6,1.7-10.7,5.7-20.6c1.9-5,4.4-11.3,5.4-14.3c0.9-2.9,2.7-7.8,3.8-10.7c1.1-3.6,1.9-6.5,1.9-8.4c0-2.9-1.3-6.5-2.5-6.5
		c-0.4,0-1.4-0.6-2.1-1.4c-0.6-0.6-1.5-1.5-1.9-1.7c-0.6-0.4-1.5-1.9-2.5-3.6c-0.9-2.1-2.3-3.6-3.4-4.6c-1.1-0.6-2.3-1.5-2.7-1.9
		c-0.4-0.6-2.1-1.1-3.6-1.5c-3.8-0.9-6.5-0.2-9.5,2.7c-1.1,0.9-2.9,2.1-3.6,2.1c-1,0.4-3.3,2.5-6.9,6.3
		c-6.1,6.9-10.9,12.6-10.7,13.2c0,0.2-1.4,2.3-3.3,4.4c-1.7,2.3-3,4.6-3,5c0,0.6-0.4,1.1-0.8,1.5c-0.6,0.4-6.1,7.8-8.6,11.8
		c-1.1,1.9-3.8,5.7-5.5,7.8c-0.8,1-1.9,2.9-2.5,4.2c-0.8,1.1-1.5,2.3-1.7,2.3c-0.4,0-0.6,0.2-0.6,0.6c0,0.4,0.4,0.4,1,0
		c1.7-1.5,1.1,0-1.4,3.6c-2.3,3-2.7,4-2.3,5c0.2,1,0,2.1-1,3.8c-0.2,0.6-0.4,1.2-0.6,1.7c-0.5,0.2-0.9,0.4-1.3,0.6
		c0.1-2.2,1-5.9,2.3-8.6c1.9-4,1.9-4,1.1-4c-0.4,0-1.3,1.9-2.5,4c-1.8,3.6-2.4,6.7-2.2,9.2c-2.9,1.3-5.1,2.1-5.6,1.9
		c-0.2-0.2-0.2-0.9-0.2-1.7c0.2-0.8,0.2-1.1-0.2-1.1c-0.2,0-0.4-2.9-0.2-6.3c0-5.2,0-6.3-0.8-7.1c-1.1-1-1.3-2.7-0.4-3.1
		c1-0.6,1.7-4,1.7-8.6c0.2-2.3,0.4-5.2,0.6-6.1c0.4-1.1,0.2-2.3-0.2-2.9c-0.6-0.8-0.4-1.1,0.2-1.3c0.8-0.6,1.1-4.6,2.3-18.9
		c1.1-16,0.8-20.2-2.3-24.8l-1.9-2.9l-2.9,0.4l-2.7,0.4l0.4-1.5c0.2-1.4,0.2-1.5-2.5-2.1c-1.9-0.2-3.1-0.4-3.3,0
		c-0.2,0.4-0.4,0.4-0.8,0c-0.6-0.8-4.4,1.1-6.9,3.6c-6.7,6.5-17.6,20.5-17.6,22.4c0,0.6-0.4,1.1-0.8,1.3c-1.3,0.4-13,20.6-13,22.2
		c0,0.6-0.6,1.1-1,1.5c-0.6,0.2-0.9,0.8-0.9,0.9c0,0.2-1.1,2.5-2.5,5.4c-1.5,2.7-2.5,4-2.3,3c0.2-0.7,0-1.7-0.2-1.9
		c-0.4-0.2-0.8-1-0.8-1.7s0.4-1.1,1-0.9c1.3,0.2,1.5-1,5.9-19.7c1.9-8,3.6-14.9,3.8-15.5c0.2-0.4,0-1-0.2-1.1
		c-0.4-0.2-0.8-0.9-0.8-1.3c0-0.6,0.4-1,0.6-0.8c0.4,0.2,0.9-0.2,1.1-0.6c0.6-1.1,5-15.8,6.3-21.4c0.4-1.9,0.9-3.6,1.1-4
		c0.2-0.2,0.4-1.1,0.6-1.9c0-1.1,1-4,5.9-20.1c1.1-3.1,2.5-7.6,3.3-10.1c0.6-2.3,1.9-7.1,3-10.3c5.4-18.5,7.3-26.6,7.3-32.7
		c0-3.6-0.2-4.4-1.7-7.2c-1.7-3.1-1.7-3.1-4.2-3.1c-2.1,0-2.5,0-2.5-1c0-1.7-0.6-2.3-3.4-2.9c-2.5-0.6-2.9-0.4-6.3,1
		c-9.7,4.4-27.3,23.9-52.3,57.7c-11.5,15.9-16.8,23.3-19.3,27.5c-1.3,2.1-3,5.2-4,6.7c-0.9,1.5-1.5,2.9-1.1,2.9s0.6,0.2,0.4,0.4
		c-0.2,0.4-0.6,0.6-0.8,0.4c-0.8-0.4-2.1,2.1-1.5,2.9c0.2,0.2,0,0.4-0.4,0.4s-0.8,0.2-0.9,0.6c-0.2,0.4,0,0.6,0.4,0.4
		c0.4-0.2,0.2,0.6-0.6,1.7c-0.8,1.3-1.3,2.1-1.9,1.7c-0.4-0.2-0.4,0-0.2,0.6c0.2,0.4-0.6,2.3-1.7,4.2c-1,1.9-1.9,3.8-1.9,4.2
		s-0.4,1-0.8,1.5c-2.3,1.7-15.1,26.6-17.4,33.1c-0.6,1.5-1.3,3-1.5,3.4c-0.2,0.2-0.6,0.8-0.6,1.4c0,0.6-0.4,1.1-0.8,1.5
		c-0.8,0.8-5,9-5,9.9c0,0.2-0.6,1.7-1.3,3.2c-5,9.4-7.4,15.5-6.9,16c0.6,0.4,1-0.2,1.9-1.7c0.6-1.3,1.9-4,3.1-6.3
		c1.1-2.1,2.3-4.8,2.7-5.9c0.6-1.1,0.9-2.3,1.1-2.7c0.4-0.2,2.9-5.5,5.7-11.8c3.1-6.3,6.1-13.2,7.1-15.1c2.3-4.8,16-29,16.4-28.8
		c0.2,0.2-11.1,20.5-11.9,21.6c-0.9,0.9-5.5,10.5-7.8,16c-1.3,3.2-3.6,8.2-5.2,11.3c-4,8-8.2,17.4-10.1,22.2
		c-3.8,9.7-5.2,12.8-5.9,14c-0.4,0.6-1.1,1.9-1.5,3.1c-0.6,1.1-0.9,1.9-0.9,1.5c-0.4-0.6,2.3-7.4,4.8-13.5c1.1-2.5,1.1-3.3,0.2-3.3
		c-0.8,0-6.1,13-6.7,15.7c0,0.4-0.2,1.1-0.4,1.5c-0.9,1.9-8.6,22.7-8.8,23.3c-0.2,0.6-0.8,1.9-1.4,3.2c-0.8,1.4-1.5,3.4-1.9,4.6
		c-0.4,1.1-1,2.1-1.1,2.1c-0.4,0-0.4-0.6,0-1.1c0.2-0.6,0.8-3.6,1.1-6.7c0.4-2.9,0.9-7.1,1.5-9c0.4-2.1,1-4.4,1-5
		c0.2-0.8,0.9-2.7,1.5-4.4c1.1-2.5,1.1-3.2,0.6-3.6c-0.6-0.2-0.6-0.4,0-0.4c0.4,0,0.6-0.4,0.6-0.9c-0.2-0.6,0-1.1,0.4-1.7
		c0.8-0.8,3.2-9,3.2-10.7c0-0.6,0.2-1.5,0.4-2.1c0.9-1.4,2.3-6.3,2.9-9.2c0.2-1.3,0.4-2.3,0.8-2.3c0.2,0,0.6-0.9,0.8-1.9
		c0.4-1.7,5-14.7,8.2-23.9c1-2.7,2.7-7.1,3.6-9.9c0.9-2.9,2.3-6.1,2.9-7.3c1.1-2.1,1.5-3.4,1.5-3.8c0-0.2,0.6-1.1,0.9-2.1
		c0.6-0.9,1-1.9,0.8-2.1c-0.4-0.6,1.1-5,1.7-5c0.4,0,0.9-1.1,1.5-2.5c0.4-1.1,1.5-3.6,2.3-5.2c0.8-1.5,2.3-5,3.3-7.4
		c3.2-8,4-9.4,15.3-31.1c7.6-14.9,16-29.6,19.3-34c1.9-2.7,4.6-6.3,5.9-8.4c1.1-2.1,3.8-5.4,5.5-7.4c4.6-5.6,4.2-7.7-1.9-10.7
		c-1.9-0.9-3.6-1.5-4-1.3c0,0.2-1.1,0.4-2.5,0.2c-1.9,0-2.5,0.2-5.4,2.7c-4,3.6-10.9,11.5-10.9,12.6c0,1-1.9,4.6-3.6,6.7
		c-0.6,0.7-1.9,3-3.1,5c-1.1,1.9-3.2,5.4-4.6,7.8c-1.3,2.3-2.5,4.6-2.3,5c0,0.2,0.8-0.4,1.5-1.7c0.6-1.1,1.3-2.1,1.3-2.1
		c0.2,0-1.1,2.5-2.9,5.7c-3.6,6.3-9.6,17.6-9.6,18c0,0-0.6,1.3-1.3,3.1c-0.8,1.5-1.5,2.9-1.5,3c0,0.2-0.2,1.1-0.8,2.1
		c-9,18.3-18.9,40.9-23.3,52.7c-5.3,14.7-10.5,29.1-12.4,35.5c-2.5,7.7-7.1,24.1-7.8,27.5c-0.4,1.3-1,3.8-1.4,5.7
		c-2.3,7.8-5,25.8-5.2,33.8v4.4l-0.6-6.1c-0.2-4.8-0.2-7.4,0.4-10.7c0.8-4,0.8-5.4,0-4.8c-0.7,0.8-1.9,10.5-1.9,16
		c0,5.3,0.2,7.1,1.1,8.8c0.7,1.5,1.3,2.3,2.1,2.3s1.3,0.4,1.3,0.8c0.4,1.3,6.7,4.4,9.9,5c3.6,0.6,4.4,0.6,4.4-0.2
		c0-0.6,0.8-0.8,2.1-0.8c1,0,2.9-0.4,4-0.6c1.7-0.6,1.9-0.8,2.3-3.4c0.2-1.3,0.8-3.4,1.1-4.4c0.4-1,1.7-5.5,2.9-9.9
		c1.1-4.4,2.5-8.6,2.7-9.2c0.2-0.6,0.9-2.7,1.7-5c0.8-2.1,1.5-4.2,1.7-4.8c1.1-2.5,3.4-9.5,3.4-10.3c0-0.4,0.4-1.5,0.8-2.3
		c0.6-1,1-1.9,1-2.5c0-0.6,0.4-1.4,0.7-2.1c0.4-0.6,1.7-3.4,2.7-6.3c1-2.9,2.1-5.7,2.5-6.3c1.3-2.9,6.3-14.3,7.4-17.6
		c0.9-2.5,1.1-3.6,0.6-3.8c-0.2-0.2-0.4-0.6-0.2-0.9c0.2-0.6,0.4-0.6,0.6-0.2c0.6,0.6,1.5-0.6,2.9-3.2c0.6-1.3,0.6-1.5-0.4-1.5
		c-0.7,0-0.7,0,0.2-0.4c0.9-0.4,2.1-2.3,4-5.9c2.7-5.7,3.1-6.9,1.9-6.5c-0.4,0-1.7,2.5-3.2,5.6c-1.5,3.2-2.7,5.2-2.9,4.8
		c-0.4-0.6-0.6-0.4-0.9,0.4c-0.2,0.6-0.9,1.7-1.5,2.9c-0.8,0.8-2.3,4-3.2,6.9c-1,2.9-2.3,5.9-2.9,6.7c-0.6,0.9-1.9,3.4-3,5.3
		c-3.1,5-2.9,3.6,0.2-2.1c1.5-2.7,3.2-6.7,4.2-9.2c0.9-2.5,2.1-5.2,2.7-6.1c0.6-0.9,0.9-2.1,0.9-2.5s1.4-2.7,2.7-5.2
		c1.5-2.5,2.7-5,2.7-5.3c0-0.6,0.4-1.7,1.1-2.7c0.6-0.8,1.9-3.6,3.1-5.9c3.2-7.1,13.5-26,19.5-35.5c21.4-34.4,50-72.4,66.5-87.7
		c8.4-7.8,10.7-8.8,4-2.1c-3.1,3.3-6.3,6.5-7.1,7.3c-0.8,0.8-4.4,5-8,9.4c-3.8,4.6-7.1,8.4-7.3,8.8c-0.4,0.2-2.3,2.5-4.2,5
		c-1.9,2.7-4.2,5.5-5.4,6.7c-0.9,1.1-1.7,2.3-1.7,2.7c0,0.6-12,16.8-14.1,19.1c-1,0.9-2.1,2.7-2.7,3.8c-0.6,1.1-1.5,2.9-2.5,3.8
		c-1.5,1.7-3.4,4.8-6.5,10.1c-1.1,2.1-2.7,4.4-3.4,5.2c-1.9,1.7-5.2,6.9-6.3,9.7c-0.6,1.4-1.7,3.3-2.3,4.2c-1.3,1.9-2.5,6.9-1.5,6.9
		c0.2,0,1.7-2.3,3.2-5c1.4-2.9,4.2-7.3,5.9-9.7c1.9-2.7,5.3-8,7.8-11.8c16.8-26.6,41.8-58.6,57.1-73.2c3.6-3.4,4.4-3.8,4.4-2.9
		c0,1.7-2.3,12-3.3,14.5c-0.6,1.1-0.7,2.7-0.6,3.4c0.4,2.3-2.9,13.7-8,28.7c-5.2,14.9-11.8,36.5-13.2,41.6c-0.2,1.3-0.8,3.6-1.4,4.8
		c-0.4,1.4-0.6,2.5-0.4,2.9c0.2,0.2,0,0.8-0.6,1.1c-0.4,0.4-1.1,2.9-1.3,5.5c-0.6,2.7-1.1,5.9-1.7,7.2c-0.9,3.1-1.5,6.1-1.5,8.6
		c-0.2,1.1-0.6,2.9-1.1,3.6c-0.4,1-0.8,1.9-0.4,2.1c0.6,0.2,0,3.4-0.6,3.4c-0.2,0-0.4,0.9-0.4,2.3c0,1.4-0.4,2.7-0.6,2.7
		c-0.4,0.2-0.6,1.7-0.6,3.3c-0.2,1.9-0.6,3-1.1,3.4c-0.8,0.6-0.8,0.8-0.4,0.8c0.6,0,0.8,0.6,0.6,2.5c-0.8,4-1.1,5-1.7,4.2
		c-0.2-0.6-0.4,0.2-0.4,2.1c0,5.2-2.7,18.1-3.6,18.1c-0.4,0-0.4,1-0.2,2.3c0.4,1.5,0.2,1.9-0.2,1.7c-0.6-0.4-1,1.7-0.8,4.4
		c0,1.5-2.3,13-3.1,15.3c-0.6,1.1-0.9,2.5-0.9,3.1c0,1.3-1.5,4.8-1.9,4.4c-0.2-0.2,0-2.5,0.6-5.2c1-5.7,1.1-7.8,0.4-7.4
		c-0.8,0.4-2.5,9.5-2.3,12c0.2,1.5,0.4,2.1,1.4,2.3c0.6,0,1.9,1,2.9,2.1c1,1.1,1.9,1.9,2.1,1.7c0.4-0.2,0.4-0.6,0.2-0.8
		c-0.6-0.8,0.4-0.6,1.5,0.4c0.6,0.6,1.1,1.1,1.1,1.5s0.8,0.8,1.9,1.1s2.1,0.4,2.1,0c0-0.2,0.4-0.2,0.8,0c1.7,0.6,3.8-1.4,4.2-4
		c0.6-3.4,2.3-8.2,5.7-15.3c3.1-6.7,5.7-13.4,5.6-14.2c-0.2-0.2,0.2-0.6,0.8-0.9c0.7-0.6,0.9-1.1,0.6-2.1c-0.2-0.8,0-1.4,0.2-1.5
		c0.4-0.2,0.6-1.1,0.6-1.9c0-1,0.2-1.1,0.6-0.6c0.6,0.8,0.6,0.6,1-0.2c0.2-0.4,0.2-1,0-1.1c-0.2-0.2,0-0.6,0.6-1
		c0.4-0.2,1.1-1.5,1.7-3c0.4-1.4,1.7-4.2,2.9-6.5c1.1-2.1,2.7-5.5,3.6-7.6c2.1-5,11.3-21.6,15.9-28.8c2.1-3.3,3.8-5.9,3.8-6.1
		c0-0.2,2.1-2.7,4.4-5.7c2.5-2.9,4.4-5.6,4.4-5.7c0-0.2,0.6-0.8,1.3-1.4c1.4-0.8,1.5-0.8,1.7,0c0.4,1.1,0,15.1-0.4,15.7
		c-0.2,0.2-0.8,4.2-1.4,9c-0.4,4.8-1.3,11.3-1.7,14.7c-0.9,6.5-0.6,8.2,0.6,5.9c0.8-0.9,0.9-0.8,0.9,2.5c0,2.1,0,6.9-0.2,10.9
		c0,4-0.2,8.4-0.2,9.6c0,2.9-0.6,2.9-1.1,0.2c-0.4-2.3-1.5-2.9-1.5-0.9c0,1.7,1.7,5.2,2.5,5.2c0.2,0,0.6,0.2,0.6,0.8
		c0,0.9,6.1,6.7,6.7,6.3c0.2-0.2,1.1,0.2,2.1,1c2.3,1.3,6.1,2.9,6.7,2.5c0.4-0.2,0.8,0,0.9,0.4c0.6,0.9,3.5,0.6,6.8-0.5
		c0.5,0.4,1.5,1.1,2.5,1.6c2.3,1.3,3.6,0.9,8.6-3.4c5-4,6.1-5.5,14.3-16.2c3.6-4.8,8.2-10.7,10.5-13.4c2.1-2.7,4.4-5.5,5-6.5
		c0.6-1,1.1-1.5,1.1-1.4c0,1.1,2.1-1.9,2.1-3.1c0-0.6,0.4-0.9,0.8-0.9c0.4,0,3.4-2.5,6.5-5.5c4.4-4.4,6.1-5.7,7.6-6.1
		c1.5-0.2,2.3-0.9,3.8-3.4c1.1-1.5,3.1-3.4,4.2-4.2l1.9-1.4l-2.7,5.2c-2.5,4.8-7.7,16.6-10.5,24.6c-0.8,2.3-1.7,4.6-1.9,5.2
		c-1.1,1.9-2.1,7.8-2.1,11.1c0,4.2,1.3,7.8,3.4,9.5c0.8,0.8,1.5,1.7,1.5,2.1c0.2,1.5,3.2,4.2,5.5,5.2c5.2,2.3,10.5,1.9,18.3-1.5
		c8-3.4,21.4-13.2,21.4-15.5c0-0.4,0.4-0.7,0.6-0.6c0.1,0.1,0.9-0.5,1.9-1.3c-1.7,4.9-3,9.3-3.7,13l-0.9,4.4l0.9,1.9
		c0.8,0.9,1.4,2.1,1.5,2.7c0.2,0.4,0.8,0.8,1.5,0.9c0.6,0.2,1.3,0.6,1.5,1c0.2,0.4,0.8,0.8,1.1,0.8c0.4,0.2,1.1,0.2,1.5,0.2
		c1.1,0,4.8-4.2,6.1-6.9c0.6-1.1,2.1-4,3.6-6.5c1.3-2.3,3-5.2,3.4-6.1c0.6-0.9,2.5-4.2,4-6.9c2.9-4.8,3.8-6.9,5.9-12.2
		c0.4-1.1,0.9-2.5,1.3-2.9c0.2-0.6,1.9-3.4,3.8-6.5c3.2-5.5,5.2-8.6,6.7-10.3c0.4-0.6,0.8-1.3,0.6-1.7c0-0.6,0.4-1.1,0.9-1.4
		c0.4-0.2,0.9-0.8,0.9-1.3c0.2-1,1.7-2.7,2.5-2.9c0.4,0,0.9-0.6,1.5-1.4c2.3-2.9,5.9-6.3,6.7-6.1c0.6,0,0.6,0,0.2-0.2
		c-0.8-0.6,1.7-2.9,2.5-2.5c0.4,0.2,0.4,0.2,0.2-0.2c-0.2-0.4,0.2-0.8,1.4-1.3c1.3-0.8,1.7-0.8,2.1-0.4c0.2,0.4,0.6,3.2,0.8,6.5
		c0.2,3.3,0.8,7.3,1.1,8.8c1.3,4.8,7.6,14,10.9,15.3c0.8,0.4,1.9,0.9,2.5,1.3c0.9,0.6,2.3,0.6,5,0.4
		C404.9,755,406.8,753.8,411.3,748.5z M82.5,648.2c0.8-0.9,0.8-0.9,0.2,0.2c-0.9,1.7-1.1,1.9-1.1,1.3
		C81.5,649.4,81.9,648.8,82.5,648.2z M70.3,696.3c-0.6,0.4-0.8,0.4-1.1,0c-0.4-0.6,0.8-1.3,1.3-0.9
		C70.6,695.6,70.4,696.2,70.3,696.3z M70.6,692.9c0.2-0.2,0.6,0,0.6,0.2c0,0.4-0.4,0.6-0.6,0.6C69.9,693.7,69.9,693.3,70.6,692.9z
		 M71.2,698.5c-0.4,0.4-0.6,0.6-0.6,0.2c0-0.2,0.2-0.9,0.6-1.3c0.2-0.4,0.6-0.6,0.6-0.2C71.8,697.3,71.4,698.1,71.2,698.5z
		 M78.1,679.4c0.6-0.8,1.1-1.3,1.1-1.1c0,0.2-0.6,1.1-1.1,2.3c-0.6,1.1-1.1,1.7-1.1,1.3C76.9,681.3,77.5,680.3,78.1,679.4z
		 M75.8,670.6c0.2-0.2,0.4,0,0.2,0.6c-0.4,0.8-0.8,0.9-0.8,0.2C75.2,671.1,75.4,670.8,75.8,670.6z M73.7,673.8
		c0.2-0.6,0.6-0.8,0.8-0.6c0.2,0,0,0.4-0.4,0.8C73.5,674.6,73.5,674.6,73.7,673.8z M74.1,688c0,0.4-0.4,0.6-0.6,0.6
		c-0.8,0-0.8-0.4,0-0.8C73.7,687.6,74.1,687.6,74.1,688z M73.3,675.3c0.2,0,0,0.8-0.2,1.3c-0.4,0.6-1.4,2.7-2.3,4.4
		c-0.9,1.7-1.9,3.3-2.1,3.3c-0.2,0-0.6,0-0.6-0.2C68.1,683.4,73.1,675,73.3,675.3z M64.5,692.2c0.4-1.4,2.1-3.3,2.1-2.3
		c0,0.2-0.6,1.1-1.3,2.1C64.1,693.3,64.1,693.3,64.5,692.2z M65.8,706.7c0,1.1-0.8,1.9-1.3,1.3c0-0.4,0.2-0.9,0.6-1.5
		C65.8,705.5,65.8,705.5,65.8,706.7z M59.4,703.6c1.1,0,0.9,1.3,0,1.7c-0.8,0.2-1,0.8-0.8,1.5c0.2,0.6,0.2,1.4,0,1.7
		c-0.8,0.9-1.9,0.8-1.9-0.2C56.7,706.7,58.4,703.6,59.4,703.6z M56.1,710.3c0.2,0,0.4,0.6,0.2,1.1c-0.4,1.5-1.1,1.7-1,0.2
		C55.5,710.9,55.9,710.3,56.1,710.3z M51.3,721c0.2,0,0.2,0.6,0,1c-0.2,0.4-0.4,0.2-0.4-0.4C50.9,721,51.1,720.8,51.3,721z
		 M46.4,726.5c0.2-0.6,0.6-0.6,0.6-0.4c0,0.4-0.4,0.9-0.6,1.3c-0.4,0.4-0.6,0.6-0.6,0.4C45.8,727.5,46,726.9,46.4,726.5z
		 M34.3,767.6c-0.6-0.2-0.2-2.1,1.5-7.1c1.3-3.8,2.5-7.3,2.9-7.9c0.2-0.6,1.3-3.4,2.1-6.5c1.5-5.2,4.4-11.1,4.4-9.2
		c0,1.5,0.8,1,1.5-0.9c0.9-1.9,0.6-3.1-0.4-1.7c-0.6,0.6-0.6,0.6-0.6-0.4c0-1.4,3.4-9.7,4.4-10.7c0.8-0.6,0.8-0.6,0.4,0.6
		c-0.6,1.9,0.8,0.8,1.7-1.7c0.8-1.7,0.9-1.9,0.2-2.1c-1.3-0.6,0.6-4.6,2.9-6.1l1.7-1.1l-1.7,1.7c-1.5,1.7-1.9,2.7-0.9,2.7
		c0.2,0-0.8,2.9-2.1,6.5c-4,10.5-5,13.4-4.6,14c0.2,0.8-2.9,9.2-4.8,12.6c-1.5,3.1-3.6,8.6-3.3,9c0.4,0.6-2.5,9.6-4,12.6
		c-0.4,1.1-0.9,1.9-1.1,1.9c-0.8,0-0.9-1.3-0.4-3.2C34.7,768.6,34.7,768,34.3,767.6z M33,762.1c0.4-0.6,0.6-0.8,0.6-0.2
		c0,0.4-0.2,1.1-0.6,1.5C32.4,764.4,32.4,763.6,33,762.1z M33.2,769.3c0.6-0.2,0.6,0.9,0,2.1c0,0.6-0.4,0.8-0.8,0.8
		C31.8,772.2,32.4,769.7,33.2,769.3z M29.4,773.5c0.2,0,0.2,0.6,0,0.9c-0.2,0.4-0.4,0.2-0.4-0.4C29,773.5,29.2,773.3,29.4,773.5z
		 M28.8,775.6c0.2,0,0.2,0.6,0,1c-0.2,0.4-0.4,0.2-0.4-0.4C28.4,775.6,28.6,775.4,28.8,775.6z M24.8,789c0.2,0.2,0.2,0.8,0,1
		c-0.2,0.6-0.4,0.4-0.4-0.2C24.4,789.2,24.6,788.8,24.8,789z M19.1,844.4c-0.2,0.6-0.2,0.2-0.2-0.8c0-1.1,0-1.5,0.2-1
		C19.2,843,19.2,844,19.1,844.4z M21.4,826.6c-0.4,1-1.1,2.7-1.5,4.2c-0.4,1.4-1,4.4-1.1,6.7c-0.4,3.3-0.4,2.5-0.4-3.6
		c0.2-9.9,1.1-15.7,2.7-16c0.8-0.2,1.1-0.6,1.1-0.9c0-1.1-1-1.1-1.4-0.2c-0.6,1.3-0.2-1.7,0.8-6.5c2.5-12,8.6-33.8,9.5-34.7
		c0.2-0.2,0.2,0.6,0,1.5c-0.4,1.5-0.4,1.7,0.4,1.1c0.6-0.4,1.1-1.5,1.4-2.5c0.4-1.1,0.6-1.7,0.9-1.3c0.4,0.4,0.2,1.3-0.2,2.7
		c-1.4,3.6-1.7,5.2-1.1,5.2c0.4,0,0.4,0.8,0,1.7c-0.4,1-1.1,3.4-1.9,5.5c-0.8,2.1-2.1,5.7-2.9,7.7c-1.7,4.2-2.9,13.2-1.7,13.2
		c1,0,2.1-2.7,2.1-4.4c-0.2-0.8,0.4-2.5,0.9-3.4c0.6-1.1,0.8-2.1,0.6-2.5c-0.4-0.2-0.4-1.1-0.2-1.9c0.4-1.3,0.6-1.3,1-0.4
		c0.4,0.8,0.4,0.6,0.2-0.6c-0.4-1.5,1.1-8,2.3-9.2c0.4-0.4,0.8-0.9,0.4-1.1c-0.2-0.2,0-0.4,0.4-0.4c0.4,0,0.6-0.4,0.6-0.9
		c0-0.6,0.6-1.3,1.1-1.9c1.4-1.3,2.7-8,1.9-8.6c-0.6-0.2-0.6-0.9,0.2-2.3c0.4-1.1,0.9-3.1,1.1-4.2c0.2-1.1,0.9-3.4,1.5-5
		c0.4-1.5,2.1-5.9,3.4-9.9c1.4-3.8,2.5-7.1,2.7-7.1c0-0.2,0.8,0.4,1.7,1.1c1,0.8,1.4,1.4,1,1.4c-0.6,0-1.4,2.1-2.3,5.9
		c-0.4,1.1-0.4,1.1,0.6,0c0.6-0.6,1-1.4,1-1.7c0-0.6,0.6-1.9,1.1-3c1.5-2.9,2.3-7.1,1.1-6.9c-0.4,0.2-1-0.4-1.1-1.3
		c-0.6-1.5-0.4-1.9,0.9-5.2c0.2-0.6,0.4-1.3,0.4-1.5c0-0.2,0.6-0.6,1.4-1.1c0.6-0.4,0.8-0.6,0.2-0.4c-0.6,0.2-0.6,0-0.4-1.4
		c0.4-1.9,2.1-4,2.1-2.7c0,0.2,0.2,0.6,0.6,0.6s0.6-0.4,0.6-0.8c0-0.6-0.2-0.8-0.6-0.8s-0.6-0.4-0.6-0.8c0-0.6,0.2-0.8,0.6-0.6
		c0.6,0.2,0.6,0,0.4-0.8c-0.2-0.6,0.2-1.9,0.9-3.4c1-1.5,1.5-2.1,1.5-1.7c0,1.7,1,1,2.1-1.1c0.9-2.5,0.9-2.9,0-2.3
		c-1.5,0.4-0.2-1.4,1.5-2.1c1.9-0.9,1.9-0.9,0.8-2.1c-0.8-0.6-0.8-0.8,0-2.1l0.8-1.5v2.3l0.2,2.3l0.9-1.9c0.6-1.1,1.7-3.2,2.5-4.6
		c0.6-1.5,1.3-2.5,1.3-2.3c0.4,0.2-0.6,2.3-4,8.8c-1.3,2.7-2.7,5.4-2.9,5.9c-0.2,0.6-0.8,1.1-1.1,1.1c-0.4,0-0.4,0.2,0,0.6
		c0.9,0.4,0.2,5-1.5,7.6l-1.1,1.9l0.4-2.3c0.2-1.7,0-2.7-0.6-3.4c-0.8-0.8-0.9-1-0.9,0c0,0.4,0.2,0.9,0.6,0.9c0.8,0,0.2,2.3-1.1,4.8
		c-1.4,2.7-1.1,3.8,0.4,2.1c0.8-1,0.8-1,0.6,0c-0.2,0.6-0.4,1.1-0.4,1.3c0,0.4-0.4,0.6-0.8,0.4c-0.4,0-0.9,0.4-1.3,1.3
		c-1,1.7-0.4,2.7,0.4,1.4c1.1-1.1,0.6,0.4-5.4,16.4c-2.3,6.3-4,12-4,12.4c0,0.6-0.2,1.3-0.6,1.7c-0.2,0.4-1.3,3.1-2.3,6.1
		c-1.3,3.4-2.1,5.3-2.7,5.3c-0.6,0-0.9,0.2-1.1,0.8c-0.2,0.4,0,0.6,0.6,0.4c1.3-0.4,1.3,0,0.2,2.9c-0.4,1.1-1.1,3.6-1.7,5.3
		c-0.4,1.7-1.7,5.9-2.9,9.6c-2.5,7.6-4.4,14.1-4.4,15.7c0,0.8-2.9,2.3-3.6,1.7c0-0.2,0-1.3,0-2.9c0.4-1.9,0.2-2.5-0.6-2.5
		c-1.1,0-2.7,5.2-2.9,9.7C22.3,823.4,21.9,825.9,21.4,826.6z M25,841.2c-0.4,0.4-0.6,1.5-0.6,2.7c-0.2,4-0.9,4.4-1.3,0.6
		c-0.8-5.5-0.8-9,0.4-15.1c0.4-3.1,0.8-5.9,0.6-6.3c-0.2-0.4,0.2-0.9,1-1.3c0.6-0.2,1.5-1.4,2.1-2.5c1-1.7,1.1-1.7,1.4-0.8
		c0,0.8-0.2,1.9-0.6,2.7c-0.4,0.8-0.8,3.3-0.8,5.4C26.9,831.8,25.5,840.6,25,841.2z M28.4,838.9c-0.2,0-0.6-0.2-0.6-0.6
		c0-0.2,0.2-0.4,0.2-0.4c0.2,0,0.6,0.2,0.8,0.4C29,838.7,28.8,838.9,28.4,838.9z M128.9,652.2c0.4-0.6,1-1,1-1
		c0.2,0.2-0.2,0.8-0.8,1.4C128.1,653.4,128.1,653.4,128.9,652.2z M127.2,654.3c0.2-0.4,0.8-0.8,1-0.8c0.2,0,0,0.4-0.4,0.8
		c-0.6,0.6-1,0.9-1.1,0.9C126.4,655.3,126.8,654.9,127.2,654.3z M124.7,657.8c0.9-0.8,0.9-0.6,0,0.4c-0.4,0.6-0.8,1.1-1,1.1
		c0,0.2-0.2,0-0.2-0.2C123.5,658.7,124.1,658.2,124.7,657.8z M105.4,684.1c1.1-1.5,1.7-1.7,1-0.4c-0.4,0.6-1,1.1-1.4,1.5
		C104.8,685.3,104.8,684.9,105.4,684.1z M103.1,687.4c1.1-1.7,1.7-1.9,0.9-0.4c-0.4,0.6-0.9,1.1-1.3,1.3
		C102.5,688.5,102.5,688.1,103.1,687.4z M99.7,692.3c1.9-3.1,3.2-4.4,1.5-1.5c-0.6,1.1-1.5,2.7-2.1,3.3
		C98.5,694.6,98.9,693.9,99.7,692.3z M95.5,694.1c0.2-0.2,0.4,0,0.2,0.4c-0.4,0.9-0.8,1.1-0.8,0.4C94.9,694.5,95.1,694.1,95.5,694.1
		z M89.3,709.4c1.1-2.1,2.1-3.6,2.3-3.6c0.2,0-0.6,1.5-1.7,3.6c-1.1,1.9-2.3,3.6-2.3,3.6C87.4,713,88.2,711.3,89.3,709.4z
		 M71.8,747.7c-0.4,0.6-0.6,0.6-0.6,0.4c0-0.4,0.2-1,0.6-1.4c0.2-0.4,0.6-0.6,0.6-0.2C72.3,746.8,72,747.4,71.8,747.7z M117.4,671.3
		c-1.9,2.7-4.8,6.9-6.3,9.2c-1.5,2.5-4.8,7.4-7.4,11.3c-2.5,3.8-7.1,11.3-10.3,16.4c-3.1,5.3-9,16-13.4,23.7
		c-4.2,7.8-7.6,14-7.6,13.7c0-0.2,3.1-6.3,6.9-13.5c8.8-16.6,9.9-18.7,12.4-22.7c1.4-1.9,3.8-5.9,5.5-9c1.7-2.9,4-6.5,5-7.8
		c6.1-9,9.4-14,10.3-15.5c0.4-0.9,1.5-2.5,2.3-3.2c0.8-0.8,1.7-2.3,2.3-3.2c0.4-1,1.5-2.3,2.3-2.9
		C120.3,666.9,119.5,668.3,117.4,671.3z M119.5,664.8c-1,1.3-1.9,2.3-2.1,2.3c-0.2,0,0.6-1,1.5-2.3c1-1.4,1.9-2.3,2.1-2.3
		C121.2,662.5,120.5,663.5,119.5,664.8z M126.8,658.7c-2.1,2.9-4.2,5.4-4.8,5.9c-1,1,2.9-4.6,5.7-8.2
		C131.6,651.7,130.8,653.4,126.8,658.7z M136.9,645.2c-0.9,1.1-1.9,2.3-2.1,2.3c-0.2,0,0.6-1.1,1.5-2.3c0.9-1.4,1.9-2.5,2.1-2.5
		C138.4,642.7,137.9,643.8,136.9,645.2z M148.4,631.4c-2.3,2.5-4.2,4.6-4.4,4.6c-0.2,0,1.1-1.5,2.7-3.6c4.8-5.4,5.7-6.3,5.7-5.9
		C152.4,626.6,150.7,628.7,148.4,631.4z M160,677.8c0.2,0.2,0.6,0,0.6-0.2c0-0.4,0-0.6,0.2-0.4c0.2,0.2,0.2,0.8,0,1.5
		c-0.4,1.3-2.1,2.1-2.1,0.9C158.7,678.6,159.5,677.6,160,677.8z M155.8,689.1c0.2-1,0.4-1,0.8-0.6c0.2,0.4,0.4,1,0.4,1.4
		s-0.2,0.6-0.8,0.6C155.8,690.4,155.6,690,155.8,689.1z M148.4,743.7c-0.2,0-0.4-0.4-0.2-0.8c0.2-0.6,0.4-0.8,0.6-0.8
		c0.2,0,0.2,0.2,0.2,0.8C148.9,743.4,148.7,743.7,148.4,743.7z M149.9,749.3c-0.6,0-0.9,0-0.8-0.2c0.2-0.2,0.8-0.2,1.1,0
		C150.7,749.3,150.7,749.3,149.9,749.3z M149.9,738.6c0.2,0.2,0.2,0.6,0,1c-0.2,0.6-0.2,0.4-0.2-0.2
		C149.5,738.8,149.7,738.4,149.9,738.6z M152.2,722c-0.2,0.4-0.2,0.2-0.4-0.4c0-0.6,0.2-0.8,0.4-0.6
		C152.4,721,152.4,721.6,152.2,722z M155,696c0.2,0.2,0.2,0.6,0,1c-0.2,0.4-0.2,0.4-0.2-0.4C154.9,696.2,154.9,695.8,155,696z
		 M153.9,695c0.6-1.9,0.8-2.3,0.8-0.9c0,0.6-0.2,1.3-0.6,1.7C153.7,696.3,153.7,696.2,153.9,695z M153.9,699.6
		c0.6-1.9,0.8-2.1,0.8-0.6c0,0.8-0.2,1.5-0.6,1.7C153.7,700.9,153.7,700.6,153.9,699.6z M154.1,720c0.4-0.8,0.6-0.8,0.6-0.4
		c0,0.6-0.2,1.3-0.6,1.9c-0.2,0.6-0.4,0.8-0.4,0.2C153.7,721.4,153.9,720.6,154.1,720z M153.3,716.8c0.2,0.2,0.2,0.6,0,0.9
		c-0.2,0.4-0.2,0.4-0.2-0.4C153,716.8,153.1,716.6,153.3,716.8z M151.8,703.2c0.4,0.2,0.6,0,0.8-0.2c0.2-0.4,0.4-0.4,0.4,0.4
		c0,0.6-0.2,1.5-0.4,2.3c-0.4,1.1-0.6,1.1-0.9,0.4C151,704.8,151.2,703.1,151.8,703.2z M145.3,726.9c0.2-0.8,0.4-2.5,0.6-3.8
		c0.2-1.5,0.8-2.3,1.1-2.3c0.6,0,0.6-0.6,0.4-1.7c-0.2-1.1,0-1.5,0.2-1c0.6,0.4,0.8,0.2,1.1-0.6c1.9-3.6,2.7-8,1.1-7.4
		c-0.4,0.2-0.2,0,0.4-0.4c0.6-0.4,1-1,1-1.4s0.2-0.8,0.6-0.8c1.1-0.8-1.1,9-2.3,10.3c-0.8,0.9-2.3,5.9-2.3,7.8
		c0,0.8-0.4,2.1-0.8,2.9c-0.9,1.3-0.9,1.3-0.6-0.6c0.2-1.5,0.2-1.7-0.4-0.7C144.9,728.3,144.9,728.1,145.3,726.9z M140.5,746.4
		c0.2-2.3,1.4-6.9,2.9-12.6c0.4-1.5,0.8-1.9,1.1-1.5c0.2,0.6,0.4,0.4,0.4-0.4c0-0.6,0.4-0.4,0.8,1l0.8,1.7l0.8-1.5
		c0.6-1.5,0.6-1.5,0.2,0.6c-0.4,2.5-2.5,6.9-2.9,5.9c-0.4-1-1.9,0.4-1.9,1.7c0,0.6-0.6,2.7-1.1,4.6l-1.1,3.2L140.5,746.4z
		 M143,762.1c0.2,0.2,0.2,0.6,0,1c-0.2,0.4-0.4,0.4-0.4-0.4C142.6,762.1,142.8,761.9,143,762.1z M140.1,749.8c0.2,0.2,0.2,1,0,1.1
		c-0.2,0.4-0.4,0.2-0.4-0.6C139.8,749.7,140,749.5,140.1,749.8z M138.4,758.8c0.2,0.2,0.2,0.8,0,1.1c-0.2,0.4-0.4,0.2-0.4-0.4
		C138.1,759,138.2,758.6,138.4,758.8z M136.7,767.8c0.2,0.2,0.2,0.6,0,1c-0.2,0.4-0.4,0.2-0.4-0.4
		C136.3,767.8,136.5,767.6,136.7,767.8z M129.5,803.9c-0.2-0.4,0.4-1.1,0.8-1.7c0.4-0.6,0.8-0.8,0.8-0.6
		C131,802.6,129.5,804.9,129.5,803.9z M135,784.6c-0.4,1.5-0.9,2.7-1.1,2.7c-0.8-0.2-1.9,6.1-1.3,6.7c0.6,0.6,0.9-0.2,1.1-2.5
		c0.4-2.5,0.9-3.3,0.9-1.1c0.2,2.7-0.2,4-1.3,7.1c-1.4,3.2-1.9,3.8-1.4,1.3c0.2-0.9,0-1.3-0.2-1.1c-0.4,0-0.6,0.8-0.6,1.1
		c0,0.6-0.4,1.1-0.6,1.4c-0.4,0.2-0.6-0.2-0.4-1.1c0.2-0.8,1.3-7.1,2.7-14c1.3-6.9,2.5-13.2,2.7-14l0.4-1.7l0.4,1.5
		c0.4,2.7,1.3,1.7,1.5-1.7c0-1.7,0.4-3.4,0.8-3.8c0.2-0.4,0.6-2.1,0.8-3.8c0.2-2.5,0.6-3.6,1.5-4.4c0.6-0.6,1.1-1.4,1.1-1.5
		c0-0.4,0.2-0.6,0.2-0.4c0.2,0,0.2,1.1-0.2,2.3c-0.2,1.1-1.3,6.1-2.3,11.3c-0.9,5.5-2.1,9.9-2.9,11.1
		C136.3,781,135.4,783.1,135,784.6z M141.9,767.8c0.2,0.2,0.2,0.6,0,1c-0.2,0.4-0.4,0.2-0.4-0.4
		C141.5,767.8,141.7,767.6,141.9,767.8z M139.8,781.2c-0.6,2.1-0.8,2.3-1.3,1.7c-0.2-0.2,1.5-6.9,2.1-7.3
		C141.1,775.1,140.5,777.9,139.8,781.2z M142.1,771.2l-1.1,1.3v-1.1c0-0.8,0.6-1.5,1.1-1.7c0.6-0.4,1.1-0.4,1.1,0
		C143.2,769.9,142.6,770.7,142.1,771.2z M148.2,747.2c-0.2,1.4-0.6,3.1-0.8,4c-0.4,1.5-0.6,3-0.8,4.2c0,0.4-0.6,0.8-1.1,1
		c-0.8,0.2-1.1,0.6-1.1,1.5l0.2,1.1l0.4-1.4c0.6-1.1,0.6-1.1,0.4,0.4c0,0.8-0.4,1.4-0.7,1.4c-0.2,0-0.6,0.2-1,0.6
		c-0.2,0.4-0.2-0.2-0.2-1.1c0.2-1.1,0.8-4.4,1.3-7.2c0.9-6.7,2.7-13.2,2.9-11.9c0.2,0.4-0.2,2.3-0.6,4.2c-0.6,1.7-1,3.6-0.8,4.2
		c0.2,0.9,0.2,0.9,0.6,0C148.2,745.1,148.4,745.1,148.2,747.2z M148.9,765.3c-0.2,0.2-0.6-0.2-0.6-0.6s0.4-0.8,0.6-0.8
		c0.4,0,0.6,0.2,0.6,0.4C149.5,764.7,149.3,765.1,148.9,765.3z M192.5,711.1c-4.2,4.4-13.6,17.2-13.6,18.5c0,0.4-0.9,1.7-1.9,3.1
		c-1.1,1.4-3.1,4.6-4.4,7.1c-1.3,2.7-2.9,5-3.2,5.2c-0.9,0.4-6.9,10.7-6.7,11.7c0,0.4-0.2,0.6-0.6,0.6c-0.2,0-0.4,0.4-0.4,0.8
		c0.2,1.3,0,1.9-1.5,3.2c-0.8,0.8-1.5,1.9-1.5,2.5c0,0.6-0.4,1.4-0.8,1.9c-1,0.8-1,0.6-0.8-2.1l0.4-2.9l-1.5,2.7
		c-0.6,1.4-2.1,4.4-3.2,6.5c-1.1,2.1-2.1,3.6-2.1,3.4c0-0.8,7.1-15.5,8.4-17.4c0.8-1.1,1.3-2.3,1.1-2.3c-0.6-0.6,1.9-5,3.2-6.1
		c0.6-0.8,0.9-1.4,0.9-1.5c-0.2-0.2,0-0.8,0.4-1.5c1.5-2.9,3.3-6.5,3.3-7.1c0-1.9,10.7-17.6,12.4-18.1c0.4-0.2,1.9-1.9,3.4-3.8
		c2.7-3.8,9.7-10.5,10.5-9.9c0.2,0.2-1.3,1.9-3.2,3.6c-4,3.6-11.9,13.2-11.5,13.9c0.2,0.4,1.7-1.3,3.4-3.8
		c4.8-6.1,12.6-13.4,12.6-11.5C195.7,707.8,194.2,709.4,192.5,711.1z M194.4,756.3c-0.2,0.4-0.4,0.2-0.4-0.4c0-0.6,0.2-1,0.2-0.8
		C194.6,755.4,194.6,756,194.4,756.3z M196.9,777l-0.4,2.9l-0.2-4c0-2.1,0.2-4.8,0.4-5.9c0.6-1.9,0.6-1.9,0.6,1.1
		C197.3,772.8,197.1,775.4,196.9,777z M233.1,755.2c0.4,0,0.6-0.4,0.6-0.8c0-0.6,0.2-0.8,0.6-0.6c0.4,0.2,0.2,0.8-0.2,1.4
		c-0.7,1.1-1.3,1.5-1.3,0.6C232.8,755.6,233,755.2,233.1,755.2z M257.8,752.9c-0.6-0.8-0.6-0.9,0-1.3c0.6-0.6,0.8-0.4,0.9,0.4
		C259.1,753.3,258.6,753.8,257.8,752.9z M266.6,741.6c0.2,0.4-0.2,0.6-0.7,0.6c-0.8,0-3.3,2.5-7.5,7.1c-3.6,3.8-6.5,7.1-6.7,7.1
		c-0.4,0,5.2-6.1,10.7-11.9c3.4-3.4,5.7-5.7,5.2-5C266.9,740.3,266.6,741.2,266.6,741.6z M274.4,724.2c-2.1,4.8-2.7,5.5-7.9,10.9
		c-4.8,4.8-5.3,5.5-4.6,6.3c0.6,0.8,0.6,0.9-0.8,0.8c-1.4-0.2-2.1,0.6-6.9,5.7c-3.2,3.6-5.2,6.1-5,6.5c0.4,0.4,0.4,1.1,0,1.7
		c-0.2,0.6-0.4,0.8-0.4,0.4c-0.2-2.3-2.5,0.2-12.6,12.4c-5.3,6.3-6.5,7.4-6.5,6.5c0-1.1,9.2-16.8,11.1-18.9c0.4-0.6,3.1-4,5.9-7.8
		c2.7-3.6,6.5-8.4,8.6-10.5c6.5-7.1,8.6-9.5,8.6-10.7c0-0.4,0.2-1.1,0.6-1.3c0.6-0.2,0.6,0,0.4,0.6c-0.6,1.1,0.4,1.1,1.5-0.2
		c1.4-1.5,9.6-8.2,9.9-8C276.5,718.7,275.5,721.2,274.4,724.2z M338.9,744.1c0.4-0.2,0.4,0,0.4,0.4c-0.4,1-0.6,1.1-0.8,0.4
		C338.6,744.7,338.8,744.3,338.9,744.1z M337.6,747.5c-0.2-0.4,0.2-0.8,0.6-1.3c0.8-0.6,0.8-0.6,0.2,0.4c-0.4,0.6-0.6,1.1-0.8,1.1
		C337.6,747.7,337.6,747.6,337.6,747.5z M336.3,751.2c0,0,0-0.6,0.4-1.4c0.4-0.9,0.7-1.5,1.3-1.5c0.6,0,0.9,0,0.9,0.2
		c0.1,0.2-1,3-2.1,5.4c-0.6,0.5-1.2,1.1-1.9,1.8c-0.5,0.4-0.9,0.8-1.3,1.2c0.8-2,1.8-4.1,2.2-4.6
		C336.3,751.7,336.5,751.2,336.3,751.2z M323.7,788.6c-0.4,0.6-0.6,1-0.8,1.1c0,0-0.2,0-0.2-0.2c0-0.4,0.4-1,0.8-1.4
		C324,787.7,324.3,787.7,323.7,788.6z M331.1,767.6c-0.2,0.4-1.7,4-3.2,8.2c-1.5,4.2-3.2,8.2-3.6,9c-1.1,1.7-1.1,1.3-0.2-0.8
		c0.4-1,0.6-2.1,0.4-2.5c-0.2-0.6,0-0.8,0.4-0.8c0.6,0,0.8-0.4,0.6-0.8c-0.2-0.4-0.2-0.6,0-0.6c0.6,0.4,0.9-1.5,0.6-2.1
		c-0.4-0.4-0.2-0.4,0-0.2c0.4,0,0.6-0.2,0.8-0.6c0.2-0.4,0-0.6-0.2-0.4c-0.7,0.5,0.1-2.1,2.3-7.2c0.5-0.6,0.8-1,0.8-1.2
		c0-0.1,1.2-1.6,2.8-3.5C332,765.6,331.5,767.2,331.1,767.6z"/>
	<path d="M441.3,694.5c0.4,0.4,0.8,0.9,0.9,1.1c0,0.4,0.8,1.4,1.5,2.3c1,1.1,1.7,1.5,3.2,1.5c1,0,2.1,0,2.3,0.2
		c1,1.1,2.9-1.4,6.5-8.4c2.7-5.2,5.4-9.5,9.4-14.9c1.3-1.7,2.7-4,2.7-4.8s0.4-1.9,0.6-2.3c0.4-0.8,0.2-1.5-0.8-3.4
		c-1.7-3.8-2.7-3.6-7.4,0.8c-5,4.6-14.3,17-17.6,22.7C440.6,693.5,440.4,693.9,441.3,694.5z"/>
	<path d="M587.1,747.2c-0.8,0-3.3,2.3-3.6,3.8c-0.2,0.6-0.9,1-1.5,1.1c-0.8,0.2-2.7,1.7-4.4,3.6c-1.9,1.7-3.4,3.1-3.6,3.1
		c0-0.2,0.4-0.9,1.1-1.7c0.6-0.6,1.1-1.5,0.8-2.1c-0.2-0.6-1.9,0.8-5.7,4.6c-3.4,3.2-5.7,5.2-5.9,4.8c-0.4-0.4-2.3,0.8-5.2,3.4
		c-10.7,9.2-18,14.1-27.3,18.3c-4.2,1.9-7.2,2.5-9.5,1.9c-1.4-0.2-1.4-0.6-1.4-3.6c0-4.6,1.7-10.7,5.7-20.6c1.9-5,4.4-11.3,5.4-14.3
		c0.9-2.9,2.7-7.8,3.8-10.7c1.1-3.6,1.9-6.5,1.9-8.4c0-2.9-1.3-6.5-2.5-6.5c-0.4,0-1.4-0.6-2.1-1.4c-0.6-0.6-1.5-1.5-1.9-1.7
		c-0.6-0.4-1.5-1.9-2.5-3.6c-0.9-2.1-2.3-3.6-3.4-4.6c-1.1-0.6-2.3-1.5-2.7-1.9c-0.4-0.6-2.1-1.1-3.6-1.5c-3.8-0.9-6.5-0.2-9.5,2.7
		c-1.1,0.9-2.9,2.1-3.6,2.1c-1,0.4-3.3,2.5-6.9,6.3c-6.1,6.9-10.9,12.6-10.7,13.2c0,0.2-1.4,2.3-3.3,4.4c-1.7,2.3-3,4.6-3,5
		c0,0.6-0.4,1.1-0.8,1.5c-0.4,0.2-2.7,3.3-5.1,6.6c7.5-12,8.7-14.9,8.7-17.5l-0.2-1.9l-0.8,1.4c-0.6,0.6-0.8,1.3-0.6,1.5
		c0.6,0.6-0.8,3-1.4,2.7c-0.4,0-0.6,0-0.2,0.4s-7.7,12.2-10.3,15.1c-1.1,1.1-1.3,1.3-1.1,0.4c0-0.6,0.4-1.3,0.8-1.9
		c2.1-2.9,7.1-10.5,9.3-14.1c1.4-2.3,2.9-4.6,3.4-5c0.4-0.6,0.6-1.1,0.4-1.5c-0.4-0.9-1.1,0-3.4,3.8c-0.9,1.7-2.1,3.4-2.3,3.8
		c-0.4,0.4-1,1.5-1.5,2.3c-0.4,0.8-0.8,1.3-1,0.9c0-0.2,1.4-2.3,2.9-5c1.5-2.3,2.7-4.6,2.3-4.8c-0.2-0.2,0-0.6,0.4-0.6
		c1-0.2,3.8-5.5,3.3-5.9c-0.2-0.2-0.8,0.8-1.5,2.1c-0.8,1.3-1.5,2.5-1.9,2.5s-2.1,2.5-3.8,5.4c-10.3,16.6-31.1,41.3-45.7,53.7
		c-6.7,5.7-11.8,9.2-14.9,9.7l-2.5,0.6l-0.2-2.3c-0.2-1.5-0.2-2.9,0-3.1c0.8-0.9,0.4-2.5-0.6-1.9c-0.4,0.2-0.6,0.2-0.6-0.2
		s0.4-0.8,0.9-0.8c0.4,0,0.8-1,1.1-2.7c1.1-6.9,5.7-20.6,8.8-26.4c0.4-0.6,1.4-2.7,2.1-4.4c0.8-1.7,1.9-4,2.5-5.2
		c0.6-1.1,2.1-3.8,3.4-6.3c1.1-2.3,2.9-5.4,3.6-6.9c0.8-1.3,2.3-4,3.1-5.9c0.9-1.7,2.1-4.2,2.9-5.5c0.6-1.3,1.1-3.1,1.1-4.4
		l-0.2-2.3l-3.6-2.3c-3-2.1-4-2.5-5.5-2.3c-1.7,0.2-2.1,0.6-4.6,4c-2.5,3.6-3.4,5.4-8.8,16.4c-1.5,3.3-3.4,7.3-4.2,8.8
		c-0.8,1.5-2.3,5-3.2,7.8c-0.9,2.7-2.3,6.3-3.1,8.2c-0.6,1.7-1.5,4.6-1.9,6.1c-0.6,1.5-1.1,4-1.5,5.3c-1.1,4.2-4,19.7-3.8,21
		c0,0.4,1.1,1.9,2.5,3.6c4.2,5.4,9.7,8.2,15.5,8c1.5,0,2.7,0,2.9,0c2.3,0,12.2-5.5,16.2-9.4c5-4.4,8.6-8.2,8.6-8.6s0.2-1,0.8-1.1
		c1-0.6,4.6-4.4,8.6-9.4c0.4-0.5,0.7-0.9,1.1-1.3c-0.2,0.4-0.5,0.9-0.7,1.3c-3.3,6.7-3.1,11.7,0.2,14.1c0.6,0.4,0.6,0.8,0.2,1
		c-0.6,0.4-0.2,2.5,0.6,2.5c0.2,0,0.8,0.4,1.1,0.9c0.4,0.4,1.5,1.1,2.7,1.7c2.3,1.3,3.6,0.9,8.6-3.4c5-4,6.1-5.5,14.3-16.2
		c3.6-4.8,8.2-10.7,10.5-13.4c2.1-2.7,4.4-5.5,5-6.5c0.6-1,1.1-1.5,1.1-1.4c0,1.1,2.1-1.9,2.1-3.1c0-0.6,0.4-0.9,0.8-0.9
		c0.4,0,3.4-2.5,6.5-5.5c4.4-4.4,6.1-5.7,7.6-6.1c1.5-0.2,2.3-0.9,3.8-3.4c1.1-1.5,3.1-3.4,4.2-4.2l1.9-1.4l-2.7,5.2
		c-2.5,4.8-7.7,16.6-10.5,24.6c-0.8,2.3-1.7,4.6-1.9,5.2c-1.1,1.9-2.1,7.8-2.1,11.1c0,4.2,1.3,7.8,3.4,9.5c0.8,0.8,1.5,1.7,1.5,2.1
		c0.2,1.5,3.2,4.2,5.5,5.2c5.2,2.3,10.5,1.9,18.3-1.5c8-3.4,21.4-13.2,21.4-15.5c0-0.4,0.4-0.7,0.6-0.6c0.6,0.4,9.7-8.4,9.7-9.4
		c0-0.2,2.5-3.2,5.5-6.5c3.1-3.2,5.3-6.3,5.3-6.5c0-0.4,0.4-0.6,0.6-0.6c0.2,0,0.8-0.8,0.8-1.7c0.2-0.9,1.1-2.5,2.1-3.2
		C588.2,747.7,588.4,747.2,587.1,747.2z M476.3,754.4c0-0.6,0.2-0.8,0.6-0.6c0.4,0.2,0.2,0.8-0.2,1.4c-0.7,1.1-1.3,1.5-1.3,0.6
		c0-0.2,0.2-0.6,0.4-0.6C476.1,755.2,476.3,754.8,476.3,754.4z M466.9,755.8c0.8,0.2,1.4,0.6,1.5,0.6c0,0-0.4,0.2-1.1,0.4
		c-0.8,0-1.3-0.2-1.3-0.6C466,755.8,466.2,755.6,466.9,755.8z M463.7,769.2c-0.5,0.7-0.9,1.3-1,1.3c0,0,0,0,0,0
		C463.1,770,463.4,769.6,463.7,769.2z M461.7,774.7c-2.3,3-2.7,4-2.3,5c0.2,1,0,2.1-1,3.8c-0.6,1.5-1.1,3.1-1.1,3.6
		c0,0.8-0.2,0.8-0.6,0.2c-0.8-1.1,0.4-6.5,2.1-10.1c1.4-3,1.8-3.7,1.6-3.9c0.6-0.8,1.2-1.5,1.7-2.1c0.1,0.3,0.4,0.3,0.9-0.1
		C464.8,769.5,464.2,771,461.7,774.7z M500.3,752.9c-0.6-0.8-0.6-0.9,0-1.3c0.6-0.6,0.8-0.4,0.9,0.4
		C501.7,753.3,501.1,753.8,500.3,752.9z M509.1,741.6c0.2,0.4-0.2,0.6-0.7,0.6c-0.8,0-3.3,2.5-7.5,7.1c-3.6,3.8-6.5,7.1-6.7,7.1
		c-0.4,0,5.2-6.1,10.7-11.9c3.4-3.4,5.7-5.7,5.2-5C509.5,740.3,509.1,741.2,509.1,741.6z M517,724.2c-2.1,4.8-2.7,5.5-7.9,10.9
		c-4.8,4.8-5.3,5.5-4.6,6.3c0.6,0.8,0.6,0.9-0.8,0.8c-1.4-0.2-2.1,0.6-6.9,5.7c-3.2,3.6-5.2,6.1-5,6.5c0.4,0.4,0.4,1.1,0,1.7
		c-0.2,0.6-0.4,0.8-0.4,0.4c-0.2-2.3-2.5,0.2-12.6,12.4c-5.3,6.3-6.5,7.4-6.5,6.5c0-1.1,9.2-16.8,11.1-18.9c0.4-0.6,3.1-4,5.9-7.8
		c2.7-3.6,6.5-8.4,8.6-10.5c6.5-7.1,8.6-9.5,8.6-10.7c0-0.4,0.2-1.1,0.6-1.3c0.6-0.2,0.6,0,0.4,0.6c-0.6,1.1,0.4,1.1,1.5-0.2
		c1.4-1.5,9.6-8.2,9.9-8C519.1,718.7,518.1,721.2,517,724.2z"/>
	<path d="M1335,694.5c0.4,0.4,0.8,0.9,0.9,1.1c0,0.4,0.8,1.4,1.5,2.3c1,1.1,1.7,1.5,3.2,1.5c1,0,2.1,0,2.3,0.2
		c1,1.1,2.9-1.4,6.5-8.4c2.7-5.2,5.4-9.5,9.4-14.9c1.3-1.7,2.7-4,2.7-4.8s0.4-1.9,0.6-2.3c0.4-0.8,0.2-1.5-0.8-3.4
		c-1.7-3.8-2.7-3.6-7.4,0.8c-5,4.6-14.3,17-17.6,22.7C1334.2,693.5,1334,693.9,1335,694.5z"/>
	<path d="M1486.4,742.6l-0.6-1.7l-1.4,1.7l-1.5,1.9l1.1-2.1l0.9-2.3l-2.1,2.5c-1.1,1.3-1.9,2.7-1.7,3c0.2,0.4,0,0.6-0.2,0.6
		c-0.4-0.2-3.6,3.2-7.4,7.4c-8.4,9.4-15.7,16-20.1,18.7c-2.7,1.5-4.2,1.9-6.9,1.9c-3.6-0.2-3.6-0.2-5-2.7c-1.7-3.8-3.1-10.5-4-22.5
		c-0.6-6.1-1.1-13.2-1.7-15.8c-0.6-4.4-0.9-5.4-3-7.4c-1.4-1.5-2.5-3.1-2.5-3.6c-0.2-1.1-5.3-3.8-7.6-3.8c-1.7-0.2-8,4.2-10.7,7.6
		c-3.4,3.8-9,9.7-9.4,9.7c-0.6,0-5.3,5.2-14.3,16.2c-4.8,5.9-9,10.7-9,10.5c-0.2-0.4,7.4-18,11.7-26.7c5.5-11.5,11.3-22,13.2-24.6
		c1.9-2.5,2.1-2.9,1.5-4.8c-0.4-1.4-1.3-2.7-1.9-3.2c-0.8-0.6-1.3-1.1-1.1-1.5c0.2-0.2,0-0.8-0.2-1c-0.4-0.4-0.6-1.1-0.6-2.1
		c0-0.8-0.6-1.7-1.4-2.1c-0.6-0.4-1.3-1.1-1.5-1.5c-8.1,12.1-15.1,25.1-20.9,37.3l-0.1-0.6l-0.8,1.4c-0.6,0.6-0.8,1.3-0.6,1.5
		c0.1,0.1,0.1,0.3,0.1,0.5c-0.3,0.7-0.6,1.3-0.9,2c-0.2,0.2-0.4,0.2-0.5,0.2c-0.4,0-0.6,0-0.2,0.4s-7.7,12.2-10.3,15.1
		c-1.1,1.1-1.3,1.3-1.1,0.4c0-0.6,0.4-1.3,0.8-1.9c2.1-2.9,7.1-10.5,9.3-14.1c1.4-2.3,2.9-4.6,3.4-5c0.4-0.6,0.6-1.1,0.4-1.5
		c-0.4-0.9-1.1,0-3.4,3.8c-0.9,1.7-2.1,3.4-2.3,3.8c-0.4,0.4-1,1.5-1.5,2.3c-0.4,0.8-0.8,1.3-1,0.9c0-0.2,1.4-2.3,2.9-5
		c1.5-2.3,2.7-4.6,2.3-4.8c-0.2-0.2,0-0.6,0.4-0.6c1-0.2,3.8-5.5,3.3-5.9c-0.2-0.2-0.8,0.8-1.5,2.1c-0.8,1.3-1.5,2.5-1.9,2.5
		s-2.1,2.5-3.8,5.4c-10.3,16.6-31.1,41.3-45.7,53.7c-6.7,5.7-11.8,9.2-14.9,9.7l-2.5,0.6l-0.2-2.3c-0.2-1.5-0.2-2.9,0-3.1
		c0.8-0.9,0.4-2.5-0.6-1.9c-0.4,0.2-0.6,0.2-0.6-0.2s0.4-0.8,0.9-0.8c0.4,0,0.8-1,1.1-2.7c1.1-6.9,5.7-20.6,8.8-26.4
		c0.4-0.6,1.4-2.7,2.1-4.4c0.8-1.7,1.9-4,2.5-5.2c0.6-1.1,2.1-3.8,3.4-6.3c1.1-2.3,2.9-5.4,3.6-6.9c0.8-1.3,2.3-4,3.1-5.9
		c0.9-1.7,2.1-4.2,2.9-5.5c0.6-1.3,1.1-3.1,1.1-4.4l-0.2-2.3l-3.6-2.3c-3-2.1-4-2.5-5.5-2.3c-1.7,0.2-2.1,0.6-4.6,4
		c-2.5,3.6-3.4,5.4-8.8,16.4c-1.5,3.3-3.4,7.3-4.2,8.8c-0.8,1.5-2.3,5-3.2,7.8c-0.7,1.9-1.5,4.2-2.2,6.1c-4,5.2-8.1,10.1-10.2,12.2
		c-1.7,1.5-4,4-5,5.5c-1.9,2.7-4.2,5-5.4,5.2c-0.8,0.2-2.9,2.5-9,9.6c-8.6,10.5-23.3,24.6-30,29.4c-8,5.5-17.2,9.7-21.6,9.9
		c-1.1,0-3.2-0.2-5-0.4c-2.3-0.6-3.1-0.9-4.4-3.1c-4.4-6.3-5.2-14.5-2.9-28.4c0.9-4.6,2.3-10.7,3.1-13.4c1.5-5,1.5-5,3.2-4.6
		c3.6,0.6,11.3-3.4,16.2-8.6c9.4-9.6,30.4-36.5,41.8-53.5c1.9-2.9,5.3-8,7.6-11.5c2.3-3.3,6.1-9.6,8.8-13.7c2.7-4.2,5-8.2,5.3-8.6
		c5.7-9,24.3-43.2,30.4-56.3c4.4-9.6,5.5-12.2,6.1-16.4c0.4-3.3,0.2-4-3.4-9.6c-2.1-3.2-7.8-5-11.7-3.1
		c-29.2,14.5-71.1,79.3-73.4,83.7c-0.8,1.4-2.9,5.4-5,8.8c-5.7,9-20.6,37.6-20.5,39.3c0,0.2-0.9,2.3-1.9,4.6
		c-2.9,6.3-6.1,14.8-8.9,23.6c-3.1,2.9-5.2,4.6-5.4,4.3c-0.4-0.4-2.3,0.8-5.2,3.4c-10.7,9.2-18,14.1-27.3,18.3
		c-4.2,1.9-7.2,2.5-9.5,1.9c-1.4-0.2-1.4-0.6-1.4-3.6c0-4.6,1.7-10.7,5.7-20.6c1.9-5,4.4-11.3,5.4-14.3c0.9-2.9,2.7-7.8,3.8-10.7
		c1.1-3.6,1.9-6.5,1.9-8.4c0-2.9-1.3-6.5-2.5-6.5c-0.4,0-1.4-0.6-2.1-1.4c-0.6-0.6-1.5-1.5-1.9-1.7c-0.6-0.4-1.5-1.9-2.5-3.6
		c-0.9-2.1-2.3-3.6-3.4-4.6c-1.1-0.6-2.3-1.5-2.7-1.9c-0.4-0.6-2.1-1.1-3.6-1.5c-3.8-0.9-6.5-0.2-9.5,2.7c-1.1,0.9-2.9,2.1-3.6,2.1
		c-1,0.4-3.3,2.5-6.9,6.3c-6.1,6.9-10.9,12.6-10.7,13.2c0,0.1-0.4,0.8-1.1,1.7c-0.1-0.1-0.3,0.2-1,1c-0.9,1.1-0.9,0.9,0.2-1.5
		c1.7-3.2,1.1-3.8-0.8-0.9c-0.8,0.9-1.5,1.9-1.9,1.9s-0.9,0.6-1.3,1.5c-0.4,0.8-1.9,2.9-3.4,4.8c-1.5,1.9-3.8,4.8-5.2,6.7
		c-1.4,1.7-5.6,6.3-9.6,10.1c-22.5,22-53.1,40.9-79.1,48.9c-9.2,2.9-18.7,3.6-25.4,1.9c-4.6-1.1-10.7-4.4-12.2-6.7
		c-2.7-4-3.6-7.4-3.6-14.1c0-5.3,0.4-7.2,1.7-12.6c0.9-3.4,2.7-8.6,3.8-11.3c0.6-1.6,1.3-3.2,1.7-4.5c2.5-2.8,4.4-5.3,4.4-5.4
		c0-0.4,0.4-0.6,0.6-0.6c0.2,0,0.8-0.8,0.8-1.7c0.2-0.9,1.1-2.5,2.1-3.2c1.7-1.5,1.9-2.1,0.6-2.1c-0.8,0-3.3,2.3-3.6,3.8
		c-0.1,0.4-0.5,0.6-0.8,0.8c3.9-6.6,10.6-16.1,15.3-21.5c5.9-6.7,23.1-23.7,24.1-23.7c0.2,0,1.3-0.8,2.7-1.7c1.5-1.1,4.2-2.9,6.3-4
		c2.1-1.1,5.2-2.9,6.7-3.8c4.4-2.9,7.8-4,12-4c4.8,0,7.4,1.1,8,3.1c0.2,0.9,0.4,3.2,0.4,5.2c0,3.4-0.2,4.2-3.6,11.1
		c-4.6,8.8-10.9,18.5-16,24.3c-3.6,4.2-8.6,8.6-9.6,8.6c-0.2,0-1.3-0.8-2.7-1.9c-1.9-1.5-2.5-1.7-5.7-1.7h-3.4l-0.2,2.3
		c-0.2,2.7,1.3,5.4,4.4,7.8c4.2,3.4,10.9,4,15.3,1.3c4.6-2.7,10.9-9.5,16.8-18.5c3.1-4.6,5.5-8.4,5.5-8.8c0-0.2,1.1-2.3,2.5-4.4
		c1.3-2.3,3.4-6.9,4.4-10.3c1.9-5.9,2.1-6.1,1.5-9.5c-0.8-4.6-2.7-7.3-7.1-10.3c-5.2-3.6-11.7-4.4-21-2.5
		c-7.7,1.5-17.6,6.1-21.4,9.7c-1.1,1.1-2.3,1.7-3.1,1.7c-1.7-0.4-13.2,10.5-21.8,20.3c-11.9,13.7-21.6,29.2-26.8,42.6
		c-1.2,1-2,1.5-2.1,1.3c-0.4-0.4-2.3,0.8-5.2,3.4c-10.7,9.2-18,14.1-27.3,18.3c-4.2,1.9-7.2,2.5-9.5,1.9c-1.4-0.2-1.4-0.6-1.4-3.6
		c0-4.6,1.7-10.7,5.7-20.6c1.9-5,4.4-11.3,5.4-14.3c0.9-2.9,2.7-7.8,3.8-10.7c1.1-3.6,1.9-6.5,1.9-8.4c0-2.9-1.3-6.5-2.5-6.5
		c-0.4,0-1.4-0.6-2.1-1.4c-0.6-0.6-1.5-1.5-1.9-1.7c-0.6-0.4-1.5-1.9-2.5-3.6c-0.9-2.1-2.3-3.6-3.4-4.6c-1.1-0.6-2.3-1.5-2.7-1.9
		c-0.4-0.6-2.1-1.1-3.6-1.5c-3.8-0.9-6.5-0.2-9.5,2.7c-1.1,0.9-2.9,2.1-3.6,2.1c-1,0.4-3.3,2.5-6.9,6.3
		c-6.1,6.9-10.9,12.6-10.7,13.2c0,0.2-1.4,2.3-3.3,4.4c-1.7,2.3-3,4.6-3,5c0,0.6-0.4,1.1-0.8,1.5c-0.6,0.4-6.1,7.8-8.6,11.8
		c-1.1,1.9-3.8,5.7-5.5,7.8c-0.8,1-1.9,2.9-2.5,4.2c-0.8,1.1-1.5,2.3-1.7,2.3c-0.4,0-0.6,0.2-0.6,0.6c0,0.4,0.4,0.4,1,0
		c1.7-1.5,1.1,0-1.4,3.6c-2.3,3-2.7,4-2.3,5c0.2,1,0,2.1-1,3.8c-0.6,1.5-1.1,3.1-1.1,3.6c0,0.8-0.2,0.8-0.6,0.2
		c-0.8-1.1,0.4-6.5,2.1-10.1c1.9-4,1.9-4,1.1-4c-0.4,0-1.3,1.8-2.4,3.8c2-4.8,3.5-11.3,3.2-12.8c-0.2-0.4,0.2-1,0.4-1.1
		c0.6-0.2,0.8-1.7,1-4.4c0.2-2.1,0.2-4.4,0.4-5c0.2-6.1-1.9-16.8-4.4-21c-0.6-1.1-1.1-2.3-1.1-2.5c0.2-1.4-5.7-9.2-9.4-12.6
		c-4.8-4.6-14.5-9.7-21-11.5c-0.8-0.2-2.7-0.8-4.2-1.1c-3.8-1.3-30.6-3.2-37.8-2.7c-2.9,0.2-6.5,0.4-8,0.4c-5.7,0.2-24.5,2.5-32.7,4
		c-8.4,1.3-31.5,6.1-33.4,6.7c-0.9,0.4,6.3-5.4,12.2-9.7c1.9-1.3,3.8-2.9,4-3.4c0.2-0.4,0.6-0.8,1.1-0.8c1,0.2,15.9-12.8,28.7-24.8
		c5.9-5.4,12.2-11.3,13.9-12.8c4.6-4.4,11.3-12.4,13.2-15.7c2.7-4.8,3.4-8,2.9-12.4c-0.8-6.1-2.5-8.4-8.4-11.1
		c-3.8-1.5-10.9-2.3-15.1-1.7c-1.3,0.4-2.5,0.4-2.5,0.2c-0.2,0,1.1-1.7,2.9-3.8c1.9-1.9,3.3-4,3.3-4.4c0.2-0.4,0.4-0.9,0.7-1.1
		c1.1-0.6,0.8-3.1-1.1-5.2c-3.1-3.2-4.8-4.2-7.7-4.4c-1.7-0.2-2.5-0.4-2.7-1.1c-0.2-0.8-0.4-0.8-1.3-0.2c-0.6,0.4-1.4,1-1.9,1.1
		c-1.9,0.6-9.2,9.6-18,23.1c-3.4,5-5.2,7.3-6.3,7.7c-4.6,1.7-21.6,10.9-21.2,11.7c0.2,0.2,0,0.4-0.4,0.2c-0.4-0.2-3.3,1.1-6.3,3.1
		c-4.8,3.1-5.6,3.6-4.6,4c0.9,0.6,0.9,0.6-0.2,0.6c-0.6,0-1.3,0-1.5,0c-0.6-0.2-9.5,5.9-14.3,9.9c-1.9,1.5-2.7,2.3-1.9,2.5
		c0.6,0-0.9,1.7-4.2,4.6c-5.7,5.4-9.4,9-12.6,13.2c-1.1,1.5-2.1,2.5-2.1,2.3c0-0.6,6.1-7.8,10.5-12.4c2.7-3.1,0.6-1.7-2.5,1.5
		c-11.8,12.2-18.9,24.3-26,43.7c-0.8,2.3-1.5,3.6-2.3,3.8c-1.5,0.6-1.9,1.9-2.9,11.3c-1.1,9.2-0.8,13.6,1.1,14.1
		c1,0.4,1.5,1.4,2.3,3.6c1.5,5,5.4,13.9,7.7,18c1.9,3.6,8.8,13.5,10.5,15.5c1.9,1.9,2.7,4,2.3,5.5c-0.8,2.5,1.9,9.2,4.2,10.7
		c1,0.6,1.7,1.3,1.7,1.7s2.3,2.5,3.2,2.7c0.4,0,0.9,0.2,1.1,0.6c1.5,1,3.8-1.3,3.4-3.2c-0.6-3.2-0.6-3.8,0.2-3.8
		c1.1,0.2,1.1-1.1,0-2.5c-0.6-0.6-0.9-1.5-0.9-2.3c0.2-2.1,2.3-9.2,4.8-15.9c1.3-3.4,2.9-8,3.6-10.1c2.9-8,6.7-18.5,10.9-28.7
		l4.4-10.7l6.1-1.3c3.4-0.8,9.7-2.1,14.1-3.1c4.4-1.1,9.4-2.3,11.3-2.5c4.2-0.6,16.2-2.9,17.4-3.2c0.4-0.2,1.1-0.4,1.5-0.4
		c0.6,0,3.3-0.4,5.9-0.9c10.7-1.7,20.3-3.1,27.9-3.4c2.1-0.2,5.2-0.4,6.7-0.6c3.6-0.6,23.9,0,29.4,0.6c5.5,0.6,15.3,2.9,18.5,4.2
		c10.7,4,16.8,12.4,18.2,24.4c0.4,3.8-0.2,11.5-1,14.9c-1.7,5.7-3.8,12.2-5.2,15.5c-1.5,3.4-11.5,21.4-12.2,21.8
		c-0.8,0.8-6.7,9.6-6.3,9.7c0.2,0.4,0.8-0.2,2.9-2.5c1.7-1.7-1.5,2.9-5,7.1c-1.7,2.3-3,4.2-3,4.4c0,0.2-1.4,1.9-3.1,3.6
		c-1.5,2.1-2.9,3.8-2.9,4c0,0.4,1.5-1.1,3.6-3.1c2.1-1.9,3.6-3.1,3.4-2.5c-0.6,1.3,3.6-2.7,6.5-6.1c1.1-1.3,1.9-2.3,1.9-2.1
		c0,0.6-6.7,9-9.7,12.2c-1.5,1.5-4.6,5-7.1,7.4c-5.4,5.9-25.2,23.7-31.1,27.9c-2.5,1.7-6.9,5-9.7,7.1c-6.9,5.4-23.9,15.5-32.3,19.7
		c-2.3,1.1-2.9,1.3-3.2,0.6c-0.2-0.6-0.6-0.6-1-0.2c-0.6,0.4-0.6,0.8-0.2,0.9c0.8,0.6-6.1,3.6-12,5.5c-2.5,0.8-4.2,1-4.2,0.6
		c0-0.4-0.4-0.4-0.9-0.2c-0.4,0.4-0.6,0.6,0,0.8c0.8,0.6-11.8,3.8-17.6,4.6c-2.5,0.4-5.2,0.4-5.9,0.2c-0.8-0.4-1.4-0.2-1.4,0.2
		c0,0.9-14.7-0.8-18.3-2.1c-3.6-1.5-3.2-1.9,0.6-0.6c6.5,2.3,19.5,2.3,30-0.4c3.4-0.8,5.3-0.9,5.7-0.6c0.4,0.4,0.8,0.4,1,0
		c0.4-0.4,0.2-0.6,0-0.6c-0.2,0,2.1-0.9,5.2-2.1c6.9-2.3,25.2-10.7,27.7-12.6c0.9-0.8,2.7-1.7,3.6-2.1c1.9-0.9,14.5-8.8,14.7-9.4
		c0-0.4-3.3,1.4-7.1,3.6c-2.7,1.7-16.4,9.3-20.4,11.5c-7.4,3.8-21.4,8.8-28.5,10.5c-9.2,2.1-15.1,2.7-22.3,2.1
		c-12-0.8-20.2-5-22.5-11.5c-1.5-4.4-1.4-13.7,0.6-20.5c0.4-1.3,0.6-2.7,0.4-2.9c-0.6-1.3,5.7-13.7,10.1-19.5c4.4-5.9,5.9-8,6.3-8.2
		c0.2-0.2,1-1.1,1.9-2.3c4.8-6.1,7.4-9,19.1-18.9c7.6-6.7,20.8-16.4,28.5-21c1.7-1.1,5.3-3.4,8.2-5c5.7-3.6,16-9.4,21.6-11.9
		c2.1-0.9,4.6-2.1,5.3-2.7c1.9-1.1,23.3-10.3,24.1-10.1c0.2,0,1.7-0.6,3.4-1.1c7.2-2.9,18.1-5.7,22.5-6.1c1.5-0.2,2.5-0.6,2.7-1.1
		c0.2-0.6,0.8-1.1,1.4-1.1c1.3-0.4,1.3-0.9,0.2-2.7c-1.7-2.5-8.2-2.3-16.8,0.4c-2.5,0.8-5,1.5-5.4,1.4c-0.4-0.2-0.7-0.2-0.7,0.2
		c0.2,0.2-2.9,1.5-6.5,3.1c-9.4,3.4-22.7,9-23.7,9.9c-0.4,0.2-0.9,0.6-1.3,0.6c-0.6-0.2-13.2,6.1-18.5,9.2c-2.3,1.4-6.1,3.4-8.4,4.6
		c-2.5,1.1-5.2,2.9-6.3,3.8c-0.9,0.8-3.1,2.1-4.4,2.7c-3.3,1.7-5.2,3.1-5.4,3.8c0,0.4-0.4,0.6-0.8,0.6c-1.1,0-4.2,1.9-4.2,2.9
		c0,0.4-0.6,0.8-1.3,1c-1.7,0.6-13,8.4-13,9.2s0.6,0.6,3.2-1.3c2.1-1.4,1.9-1.1-0.9,1.3c-2.1,1.7-4,2.9-4.4,2.9
		c-1.1-0.6-12.2,8.4-12.4,9.7c0,0.8,0.9,0.4,1.9-0.6c0.6-0.8,1.1-1.1,1.3-0.8c0,0-0.8,0.9-2.1,1.9c-1.4,0.8-4,3.2-5.9,5.4
		c-1.9,2.1-3.8,3.6-3.8,3.4c-0.4-0.4-1.7,0.6-1.9,1.4c0,0.2,0.4,0.4,0.8,0.2c0.6,0,0.9,0,0.8,0.4c0,0.2-0.2,0.4-0.6,0.4
		c-0.2,0-1.1,1-1.9,2.1c-0.8,1.1-1.9,1.9-2.3,1.7c-0.6,0-1.1,0.4-1.4,0.8c-0.2,0.6-0.2,0.6,0.6,0c0.6-0.2,0.9-0.4,0.9,0
		c0,0.2-0.4,0.8-0.9,1.1c-0.4,0.4-2.1,2.3-3.6,4.4c-2.9,3.8-4.2,5-1.7,1.4c0.8-1,0.9-1.7,0.6-1.5c-0.4,0.2-1.1,0.9-1.5,1.9
		c-0.6,0.7-1.1,1.3-1.5,1.1c-0.2-0.2-1.4,1.1-2.3,2.9c-1.1,1.7-2.3,3.1-2.5,2.9c-0.8-0.2-4.6,7.3-4.8,9c-0.2,0.8,0,1.7,0.4,2.3
		c0.4,0.9,0.4,1.3-0.8,2.5c-0.6,0.8-1.3,2.1-1.3,2.9c0,1.3,0.2,1.1,1.1-0.8l1.1-2.1l-0.4,3.6c-0.4,1.9-0.8,4.8-1.1,6.5
		c-1.1,6.9,2.5,18.9,7.6,24.1c4.6,5,13.2,9.4,21,11.1c3.4,0.8,9.9,0.9,10.3,0.6c0.2-0.4,0.6-0.4,1,0c0.8,0.6,2.7,0.4,10.5-0.6
		c8.2-1.1,10.7-1.7,10.7-2.3c0-0.4,0.4-0.4,0.6-0.2c0.8,0.4,13.8-4.2,21.4-7.8c6.1-2.9,20.6-10.7,23.9-13c0.6-0.4,2.5-1.5,4-2.7
		c5.4-3.3,12.8-8.6,12.8-9s0.2-0.6,0.6-0.6c0.6,0.2,1.7-0.6,8.4-5.9c5.4-4,20.4-17.4,20.4-18c0-0.2,1.4-1.3,2.9-2.5
		c1.5-1.1,3-2.9,3.2-3.4c0.2-0.8,0.8-1.3,1.1-1.3s0.8-0.2,0.8-0.4c0-0.2,0.8-1,1.3-1.7c2.9-2.7,5.5-5.3,6.5-6.5
		c0.6-0.8,2.7-3.3,4.6-5.7c10-11.7,19.4-27,25.4-41c-3,6.4-2.8,11.2,0.4,13.6c0.6,0.4,0.6,0.8,0.2,1c-0.6,0.4-0.2,2.5,0.6,2.5
		c0.2,0,0.8,0.4,1.1,0.9c0.4,0.4,1.5,1.1,2.7,1.7c2.3,1.3,3.6,0.9,8.6-3.4c5-4,6.1-5.5,14.3-16.2c3.6-4.8,8.2-10.7,10.5-13.4
		c2.1-2.7,4.4-5.5,5-6.5c0.6-1,1.1-1.5,1.1-1.4c0,1.1,2.1-1.9,2.1-3.1c0-0.6,0.4-0.9,0.8-0.9s3.4-2.5,6.5-5.5
		c4.4-4.4,6.1-5.7,7.6-6.1c1.5-0.2,2.3-0.9,3.8-3.4c1.1-1.5,3.1-3.4,4.2-4.2l1.9-1.4l-2.7,5.2c-2.5,4.8-7.7,16.6-10.5,24.6
		c-0.8,2.3-1.7,4.6-1.9,5.2c-1.1,1.9-2.1,7.8-2.1,11.1c0,4.2,1.3,7.8,3.4,9.5c0.8,0.8,1.5,1.7,1.5,2.1c0.2,1.5,3.2,4.2,5.5,5.2
		c5.2,2.3,10.5,1.9,18.3-1.5c8-3.4,21.4-13.2,21.4-15.5c0-0.4,0.3-0.7,0.5-0.6c-1.4,9.5,0,16.5,5,23.7c0.8,1.1,2.3,3.6,3.4,5.3
		c3.6,5.4,12.2,10.7,20.4,12.6c3.3,0.8,12,0.6,15.7-0.4c1.4-0.2,4.2-0.7,6.3-1.1c10.3-1.7,31-10.3,38.2-15.7c1.5-1.4,6.9-5,11.8-8.2
		c4.8-3.3,12-8.4,15.9-11.5c1.9-1.4,4.1-3.3,6.4-5.3c-0.1,0.2-0.2,0.3-0.3,0.5c-3.3,6.7-3.1,11.7,0.2,14.1c0.6,0.4,0.6,0.8,0.2,1
		c-0.6,0.4-0.2,2.5,0.6,2.5c0.2,0,0.8,0.4,1.1,0.9c0.4,0.4,1.5,1.1,2.7,1.7c2.3,1.3,3.6,0.9,8.6-3.4c5-4,6.1-5.5,14.3-16.2
		c3.6-4.8,8.2-10.7,10.5-13.4c2.1-2.7,4.4-5.5,5-6.5c0.6-1,1.1-1.5,1.1-1.4c0,1.1,2.1-1.9,2.1-3.1c0-0.6,0.4-0.9,0.8-0.9
		s3.4-2.5,6.5-5.5c4.4-4.4,6.1-5.7,7.6-6.1c1.5-0.2,2.3-0.9,3.8-3.4c1.1-1.5,3.1-3.4,4.2-4.2l1.9-1.4l-2.7,5.2
		c-2.5,4.8-7.7,16.6-10.5,24.6c-0.8,2.3-1.7,4.6-1.9,5.2c-1.1,1.9-2.1,7.8-2.1,11.1c0,4.2,1.3,7.8,3.4,9.5c0.8,0.8,1.5,1.7,1.5,2.1
		c0.2,1.5,3.2,4.2,5.5,5.2c5.2,2.3,10.5,1.9,18.3-1.5c8-3.4,21.4-13.2,21.4-15.5c0-0.4,0.4-0.7,0.6-0.6c0.2,0.1,1.2-0.7,2.5-1.8
		c-1.9,6.8-3.4,13.1-4.2,18c-1.7,9.7-1.1,19.3,1.4,24.8c0.8,1.3,1.7,4,2.5,5.9c2.5,6.7,7.8,12,15.8,15.9c3.4,1.7,4.2,1.7,9,1.5
		c3.3-0.2,6.1-0.6,7.3-1.1c1.1-0.6,2.9-1.1,3.8-1.5c2.5-0.6,12.6-7.1,17.4-11.3c4.2-3.6,13.4-12.2,17.8-16.8
		c4.6-4.8,18.9-22.7,21.4-26.9c0.5-0.8,1.2-1.9,1.9-3c-1.1,5.8-2.2,12.3-2.1,13.2c0,0.4,1.1,1.9,2.5,3.6c4.2,5.4,9.7,8.2,15.5,8
		c1.5,0,2.7,0,2.9,0c2.3,0,12.2-5.5,16.2-9.4c5-4.4,8.6-8.2,8.6-8.6s0.2-1,0.8-1.1c1-0.6,4.6-4.4,8.6-9.4
		c8.8-10.5,10.5-12.8,13.6-18c2.2-3.4,4-6.2,5.5-8.7c-6.6,15.5-10.6,27.5-11.8,31.1c-3.2,10.1-3.2,17-0.2,17.6
		c0.8,0.2,1.3,1,1.5,2.1c0.2,0.7,1.1,2.5,2.3,3.6c1.1,1.1,2.7,1.9,3.3,1.9c1.3,0.2,3.6-3.1,6.1-9c7.1-16.2,39-56.2,53.3-66.9
		c1.1-1,2.3-1.5,2.3-1.5c0.2,0.2,0.9,6.5,1.7,13.7c1.3,14,2.3,18,5,24.8c2.1,5.3,7.1,13,10.1,15.5c3.8,3.4,8.2,5.5,9.6,4.6
		c0.6-0.4,1.5-0.8,2.1-0.8c0.8,0,3.1-1.4,5.2-3.2c4.8-4,15.1-15.1,15.1-16.4c0-0.4,0.6-1.4,1.1-1.9c0.6-0.8,1.3-2.1,1.5-2.9
		c0.2-0.9,1.9-3.6,3.8-6.3C1486.8,749.5,1487.8,746.6,1486.4,742.6z M767.6,672.9c-1,0.8-1.7,1.4-1.7,1.1c0,0,0.8-0.8,1.7-1.5
		c0.9-0.9,1.7-1.3,1.7-1.3C769.3,671.3,768.5,672.1,767.6,672.9z M767,669c-4.2,3.8-8,6.9-8.4,6.9c-0.2,0-0.6-0.4-0.8-0.8
		c-0.4-0.8,11.5-11.1,12.6-11.1c0.4,0,1.3-0.6,2.3-1.1c0.8-0.8,1.7-1.3,1.7-1.1C774.8,662,771.4,665.2,767,669z M746.9,655.9
		c2.7-4.4,5-8.2,5-8.6s0.2-0.6,0.6-0.6c0.2,0,0.8-0.7,1.1-1.5c1.3-2.1,2.9-3.6,3.2-3.3c0.2,0.2,0.4,0,0.4-0.4c0-0.4,1.5-2.9,3.6-5.7
		c1.9-2.9,3.6-5.4,3.6-5.6c0-0.4,0.6-1.1,1.1-1.7c1.3-1.3,9.9-3.4,14.9-3.6c3.8-0.2,8.6,1.1,10.3,2.9c1.4,1.1,1.5,1.4,1,2.3
		c-0.4,0.8-0.8,2.1-1,3.1c-0.4,4.6-4,10.3-12.2,18.1c-2.3,2.1-4.6,4.8-5,5.7c-0.6,0.8-1.5,1.7-2.3,2.1c-0.6,0.2-1.1,0.6-1.1,0.8
		c0,0.8-2.7,2.9-3.3,2.7c-0.6-0.4-2.7,1.1-2.5,1.7c0.2,0.2-0.8,1.1-1.9,2.1c-1.3,0.8-4.4,3.1-6.9,5.2c-2.5,1.9-6.3,5-8.6,6.7
		c-2.3,1.7-4.2,3.6-4.2,4.2c0,0.6-0.6,1.3-1,1.5c-0.8,0.6-0.9,0.6-0.6,0c0.4-0.2,0.2-0.6,0-0.6c-0.8,0-1.9,1.4-1.5,1.7
		c0.2,0.4-2.1,2.5-8.6,7.6c-4,3.4-7.8,5.9-7.8,5.4c-0.2-1.4,0.4-3.2,1.1-4.2c0.4-0.6,2.3-3.8,4-7.1
		C732.8,679,740.8,665.4,746.9,655.9z M710.2,649.7c0-0.4,0.6-0.6,0.8-0.6c0.4,0,0.4,0.4,0.2,0.6c-0.2,0.4-0.6,0.6-1,0.6
		C710.1,650.3,709.9,649.9,710.2,649.7z M700.7,656l3.2-1.9l-3.4,2.5c-1.9,1.5-4.8,3.8-6.3,5.4c-1.5,1.3-2.7,2.3-2.7,1.9
		C691.5,663.1,696.5,658.9,700.7,656z M666.5,689.9c0.6-1,1.4-1.7,1.4-1.7c0.2,0-0.2,0.8-0.8,1.7c-0.6,1.1-1.4,1.9-1.5,1.9
		C665.3,691.8,665.7,691,666.5,689.9z M674.9,775.8c-0.8,2.7-1.5,5-1.7,5c-0.4,0-5-7.4-7.8-12.8c-3.6-6.9-7.4-16.6-9-22
		c-0.9-4.2-0.9-5.3-0.6-10.3c1.5-13.6,5.7-25.8,13.4-38.2c9-14.5,17.8-24.3,31.5-34.8c9.5-7.2,26.2-17.9,36.1-23.1l2.3-1.1l-2.3,3.6
		c-1.3,1.9-2.9,4.2-3.4,5.2c-0.6,0.8-4,6.7-7.8,13c-8.6,14.9-17.8,31.9-23.9,45.1l-4.8,10.5l-3.2,1.9c-4.2,2.5-9.6,4.6-10.9,4.2
		c-1-0.4-1.1-0.2-1.1,1.3c0.2,4,0.9,6.5,2.9,8.2c1,0.8,2.7,1.5,3.4,1.7c1.1,0,1.5,0.4,1.1,0.9c-0.2,0.4-0.8,1.7-0.9,2.9
		c-0.4,1.1-1,2.7-1.4,3.3C685,743.4,677,767.6,674.9,775.8z M716,686.2c0,0.4-0.2,0.9-0.6,1.3c-0.2,0.4-0.6,0.6-0.6,0.2
		c0-0.2,0.4-0.7,0.6-1.3C715.8,686,716,686,716,686.2z M687.1,750.4c0,0.6-0.2,1.3-0.4,1.5c-0.4,0.4-0.6,0-0.2-1
		C686.7,749.8,687,749.7,687.1,750.4z M677.2,793.2c-0.8-0.9-0.8-0.9,0.2-0.2c0.4,0.4,0.8,0.9,0.8,0.9
		C678.2,794.5,677.8,794.1,677.2,793.2z M702.4,733.2c-0.4,0.8-0.9,2.7-1.3,4.2c-0.4,1.5-1.1,3.6-1.7,4.8c-0.6,1.1-0.9,2.3-0.9,2.5
		c0,0.2-0.6,1.3-1.1,2.5c-0.8,1.4-1.3,2.9-1.3,3.6c0,0.8-1.4,3.6-2.9,6.5c-1.5,2.9-3.4,6.9-4,8.8c-0.9,3.2-2.7,7.8-3.4,9.7
		c-0.2,0.4-0.4,0.9-0.4,1.1c0.2,1.3-1.5,6.3-2.3,6.5c-0.6,0.2-0.8,1.1-0.9,3.8c-0.2,3.8-0.4,4.6-1.3,2.9c-0.2-0.8-0.2-1.5,0.2-2.5
		c0.2-0.6,0.8-3.2,1.1-5.5c0.4-2.5,1.1-5,1.5-5.9c0.6-0.8,0.9-1.7,0.9-2.1c0-0.6,0.8-2.3,1.5-4.2c1.4-3,1.4-5.3,0.2-4.8
		c-0.4,0.2-0.6,1-0.6,1.7c-0.2,0.8-0.4,1.7-0.8,2.1c-0.6,0.9-2.9,8.8-4.2,14.3c-1,3-1.4,3.6-1.1,1.1c0-1-0.2-1.4-0.4-1
		c-0.2,0.4-0.6,1-1,1.1c-0.6,0.2,0,2.1,0.6,2.1c0.4,0,0.6,0.4,0.4,1c0,0.4-0.4,0.2-1.4-1c-0.9-1.5-1.1-2.1-0.8-4
		c0.2-1.3,0.8-2.3,1-2.5c0.4,0,0.6-0.8,0.4-1.4c0-0.8,0.6-4.2,1.7-7.6c2.3-7.8,2.5-8.2,2.9-8c0.4,0.2,0.6-0.6,0.6-1.9
		c0.2-2.7,2.3-8.6,2.9-8c0.4,0.2,0.6-0.2,1-0.6c2.3-5.9,2.9-7.6,3-8.8c0-0.9-0.4-0.4-1.1,1.5c-0.6,1.5-1.3,2.9-1.5,3.1
		c-0.2,0.2-0.4,0-0.2-0.4c0.2-0.4,1.1-2.9,2.1-5.4c1-2.7,1.9-4.6,2.1-4.6c0,0,0,0.6-0.4,1.4c-0.8,2.7,0.8,0.6,1.9-2.3
		c0.9-2.7,0.9-2.9,0.2-2.1c-0.6,0.6-0.9,1.3-0.9,1.5c0,0.4-0.2,0.4-0.4,0.4c0-0.2,0.2-1.5,0.8-2.9c0.9-2.1,1.5-2.5,3.8-3.2
		c3.2-1.1,3.6-1.1,2.9-0.2c-0.4,0.4-1.1,2.1-1.7,4c-0.6,1.7-1.1,3.4-1.5,3.6c-0.2,0.2-1.7,3.4-3.3,7.2c-1.5,3.8-3.1,7.1-3.4,7.1
		c-0.2-0.2-0.4,0.2-0.2,0.8c0,0.4-0.2,1.5-0.4,2.5c-1.9,4.8-2.5,6.9-2.1,7.4c0.6,1.3,1.5,0,2.7-4c0.6-2.5,1.5-4.6,1.7-5
		c0.4-0.2,0.6-1.1,0.4-1.7c0-0.7,0.2-1.3,0.8-1.5c0.8-0.4,0.9-1,0.9-1.4c-0.2-0.6,0.2-0.9,0.8-0.9c1-0.2,1.5-1,3.1-3.6
		c0.2-0.2-0.2,0-0.9,0.4c-1.1,1-1.1,1-0.4-1.1c0.2-0.9,0.9-3.2,1.3-5c0.4-1.5,1.3-3.3,1.7-3.6c1.5-1.1,2.7-3.1,2.3-4
		c-0.2-0.4,0.2-0.8,0.8-0.6C703.4,731.3,703.4,731.3,702.4,733.2z M702.6,730.2c-1-0.2-1.1-0.2-0.4-0.6c1.1-0.6,1.7-0.6,1.7,0.2
		C703.8,730,703.2,730.2,702.6,730.2z M712.9,701.1c-0.6,0.4-1.3,1.7-1.5,2.9c-0.8,2.9-3.1,5.4-5.2,5.2c-1.5,0-2.1,0.8-0.8,1.1
		c0.6,0.2,0.4,0.6-0.9,1.1c-1,0.4-1.7,0.6-1.5,0.4c0-1.3,1.5-3.8,2.1-3.8c0.8,0.2,1.9-1.7,3.1-4.6c0.2-1,0.2-1.1-0.2-1
		c-0.8,0.4-0.8,0.2-0.2-0.9c0.2-0.4,0.6-0.6,0.9-0.4c0.4,0,1.1-1,2.1-2.9c0.9-1.7,1.7-3.2,2.1-3.6s0.4-1.3,0.4-2.3
		c-0.2-1.1,0-1.5,0.6-1.3c0.8,0.4,4.2-6.3,3.8-7.4c-0.4-1,1.4-4.8,1.9-4.4c0,0.2-0.2,1.1-0.8,2.1c-0.6,0.9-0.9,1.7-0.8,1.9
		c0.2,0.2,1.5-1.5,2.9-4c1.3-2.5,3-5.3,4-6.7c0.8-1.3,1.7-3.4,2.3-5c0.4-1.4,1.1-2.5,1.3-2.5c0.8,0.2,3.1-4,3.1-5
		c-0.2-0.4,0.2-0.8,0.6-0.8c1-0.4,2.7-3.3,2.9-4.6c0-0.6,0.8-1.5,1.5-2.3s1.5-1.7,1.5-2.1c0-0.4,0.2-1,0.6-1.1
		c0.4-0.2,0.6-0.8,0.6-1.4c0-0.6,0.4-0.9,0.8-0.9c0.6,0,0.6,0.2-0.6,2.3c-1.1,2.1-0.8,3.4,0.6,1.7c0.4-0.4,1-1.1,1-1.3
		c0.2-0.4,0.6-0.6,0.8-0.4c0.6,0.2,0,1.3-1.4,3.4c-1.1,1.5-2.1,3-1.9,3.2c0.2,0.2,0.6,0,0.8-0.2c0.6-0.8,3.4-1.1,3.4-0.4
		c0,0.4-1.9,3.4-3.1,5.2c-0.4,0.4-2.1,3.2-3.8,6.5c-1.9,3.4-3.3,5.5-3.8,5.4c-1-0.4-0.2-2.7,1.3-3.8c0.8-0.8,1.5-1.7,1.7-2.3
		c0.4-0.8,0.9-1.7,1.5-2.3c0.8-0.6,1.1-1.7,1.3-2.3c0-0.8,0.2-1.4,0.6-1.4c0.2,0.2,0.6-0.6,0.6-1.3c0.2-1.5,0-1.5-0.8-0.6
		c-0.9,1.1-1.1,0.8-0.8-0.9c0.2-0.6,0-1-0.4-0.8c-0.4,0.2-0.6,0.8-0.8,1.1c0,0.4-0.6,1.3-1.1,1.9c-0.8,0.8-1.1,1.7-0.9,1.9
		c0.2,0.4-0.2,1.1-1,1.7c-0.6,0.6-1.1,1.1-1.1,1.3c0,0.2-0.9,1.7-2.1,3.4c-1.1,1.7-2.1,3.2-1.9,3.4c0.2,0.4-0.2,1.3-0.9,2.1
		c-0.6,0.6-1.1,1.9-1.4,2.9c0,1.9-0.9,3.4-1.7,3c-0.4-0.2-2.1,2.5-5.2,8.2c-1.7,2.7-2.1,4.6-1.1,4c0.2-0.2,0.2,0.2,0,0.8
		c-0.2,0.6-0.6,1.1-1.1,1.1c-0.8-0.2-1.5,1.3-2.3,4.4C714.2,699.2,713.5,700.6,712.9,701.1z M719.6,689.3c0,0.2-0.2,0.8-0.6,1.1
		c-0.6,0.8-0.6,0.8-0.6,0c0-0.6,0.4-1.1,0.6-1.3C719.4,688.9,719.6,689.1,719.6,689.3z M715.4,704.2c-0.4,0.2-0.6,0-0.6-0.4
		c0-0.2,0.4-0.6,0.6-0.6c0.4,0.2,0.6,0.2,0.6,0.4C716,703.8,715.6,704,715.4,704.2z M717.7,700.9c-0.8,1.4-1.5,1.7-2.3,1.7
		c-1.1-0.2-0.9-1.4,0.2-1.4c0.4,0.2,0.8-0.2,0.6-0.8c-0.4-2.9-0.2-4.2,1.1-5c0.8-0.4,1.4-0.9,1.4-1.5c0-0.4,0.4-1.5,0.9-2.5
		c0.6-0.9,1.1-2.3,1.5-3.1c0.4-1.1,0.4-1.3-0.6-0.8c-1,0.8-1.1,0.6-0.2-0.9c0.4-0.6,1-0.9,1.1-0.8c0.4,0.2,0.6,0,0.6-0.4
		s0.4-0.9,0.8-0.9c0.6-0.2,1-1,1.1-2.3c0-1.4,0.4-1.9,1-2.1c0.4-0.2,1.1-0.8,1.5-1.5c0.2-0.6,0.8-1.5,1.1-2.1
		c0.8-0.8,0.8-0.9,0.2-1.1c-0.4-0.2-0.6-0.6-0.4-0.8c0.4-0.4,0.6-0.4,0.8,0.2c0.6,0.8,1.5,0.2,2.3-1.5c0.6-0.8,0.9-1.1,1.1-0.8
		c0.8,0.9-4.4,10.7-5.7,10.9c-0.9,0.2-1.5,1.3-0.6,1.5c0.8,0-1,3.4-2.3,4.6c-0.4,0.6-1.5,2.9-2.5,5.2
		C719.6,696.9,718.3,699.8,717.7,700.9z M781.9,708.2c6.7-1.1,7.3-1.1,7.1,0.2c0,0.6-0.2,1-0.6,0.8c-0.2-0.2-1.4,0-2.5,0.4
		c-2.5,0.8-2.9,0.8-3.3,0c-0.2-0.4-1.3-0.6-3.1-0.6C777.3,709.1,778.1,709,781.9,708.2z M773.5,709c1.5-0.6,2.1-0.6,1.5,0.2
		c-0.2,0.2-0.8,0.4-1.5,0.2C772.3,709.4,772.3,709.4,773.5,709z M813.6,710.1c-1.1-0.4-0.8-0.6,2.1-0.4c2.3,0,3.6,0.4,3.2,0.8
		C818.6,711.1,816.1,710.9,813.6,710.1z M820.6,708.6c-7.1-0.8-8.2-1-9.2-0.4c-0.4,0.4-0.8,0.9-0.6,1.1c0.7,1.3-11.1,1.5-12.4,0.2
		c-0.4-0.4-1-0.6-1.1-0.4c-0.4,0.2-0.2,0.4,0.2,0.4s0.6,0.2,0.6,0.6c0,0.2-1.1,0.6-2.7,0.6c-4.4,0.2-27.5,2.7-30.9,3.4
		c-1.7,0.2-3.6,0.6-4.2,0.4c-0.6,0-1.1,0.2-1.1,0.4c0,0.2-0.9,0.4-2.3,0.4c-1.3-0.2-2.5,0.2-2.9,0.8c-0.9,0.9-2.5,0.9-2.5,0
		c0-0.8,3-1.5,9.2-2.5c1.5-0.2,4.8-0.8,7.4-1.1c6.7-1.1,11.5-1.5,12-1.1c0.2,0.2,0.6,0.2,0.6-0.2c0-0.4,0.4-0.6,0.6-0.4
		c0.6,0.2,1.9,0.2,3.4,0c1.5-0.2,3.2-0.4,4-0.2c0.8,0,1.3-0.2,1.5-0.6c0.2-0.2,1.3-0.2,2.7-0.2c1.3,0.2,2.5,0,2.5-0.4
		s-0.9-0.6-2.9-0.4c-2.9,0-3.1,0-2.9-1.1c0.2-1,0.4-1.1,2.1-0.8c1.1,0.2,2.3,0.2,2.7,0c0.2-0.2,1.3-0.4,2.5-0.2
		c1.9,0.2,2.1,0.4,1.9,1.5c-0.2,1.1,0,1.4,0.9,1.1c0.8-0.2,2.5-0.2,3.8-0.2h2.3l-3.1-0.6c-1.7-0.6-2.9-1.1-2.9-1.5
		c0.4-0.8,4-0.9,11.1-0.6c10.9,0.6,12.2,0.8,12,1.5C822.9,708.6,822,708.6,820.6,708.6z M824.7,708.8c-0.8-0.8,0.2-0.9,2.3-0.6
		c1.3,0.2,2.1,0.6,1.9,0.8C828.5,709.5,825.2,709.4,824.7,708.8z M833.4,712.4c-0.2,0-1.3-0.4-2.5-0.6l-2.3-0.6l2.7,0.2
		c1.3,0,2.5,0.2,2.5,0.6C833.8,712.2,833.7,712.4,833.4,712.4z M848.7,715.8c-3.4-2.1-12.2-5.3-15.3-5.5c-1.7,0-2.9-0.4-3.2-0.9
		c-0.6-0.8-0.2-0.8,2.3-0.4c5.9,1.1,17.8,6.3,18.7,8C851.6,717.7,851.4,717.7,848.7,715.8z M813.6,750.2c-0.6,0-0.8-0.2-0.6-0.4
		c0,0,0.6-0.2,0.9,0C814.3,750,814.2,750.2,813.6,750.2z M812.8,748.7c0.6-0.4,1.4-0.6,1.7-0.6c0.6,0.2,0.4,0.4-0.4,0.6
		C812.6,749.3,811.9,749.3,812.8,748.7z M802.5,754.2c-0.9,0.4-2.7,0.8-3.8,1.1c-1.1,0.4-2.1,0.8-2.1,0.6c0-0.6,8.4-3.6,8.8-3.4
		C805.6,752.9,804.2,753.7,802.5,754.2z M805.2,751c0.8-0.2,1.5-0.6,1.9-0.6c0.2,0-0.2,0.4-1,0.8c-0.8,0.4-1.7,0.6-1.9,0.6
		C803.8,751.7,804.4,751.4,805.2,751z M755.5,773.5c0,0.2-1.3,1.1-3.1,2.1c-1.7,1-2.9,1.5-2.7,1.4
		C750.4,776.2,755.1,773.3,755.5,773.5z M746.2,778.9c0.2,0,0.6,0,0.6,0.2c-0.2,0.2-0.4,0.4-0.6,0.6c-0.4,0.2-0.6,0-0.6-0.2
		C745.6,779.1,745.8,778.9,746.2,778.9z M747.1,780c5.6-3,13-7.8,14.3-9c1-0.8,2.1-1.3,2.5-1.3c0.4,0,0.8-0.2,0.8-0.6
		c0-0.7,3.6-2.5,4.4-2.1s3.2-0.9,2.9-1.5c-0.4-0.8,30.6-14.3,31.1-13.5c0.2,0-1.7,0.9-4.2,1.9c-2.3,1-4.4,2.1-4.4,2.5
		c-0.2,0.4-0.6,0.8-1,0.9c-0.6,0.2-0.8,0.6-0.6,1c0.2,0.4,0,0.4-0.6,0.2c-0.4-0.2-1.9,0.2-3.8,1.1c-1.7,0.8-2.9,1.1-3,0.8
		c0-0.4-0.4-0.6-0.6-0.6c-0.4-0.2-0.6,0.2-0.4,0.4c0.2,0.4-0.4,0.9-1.1,1.5c-0.9,0.4-1.7,1-1.9,1.1c-0.2,0.2-1.3,0.8-2.5,1.1
		c-1.1,0.4-2.1,1-2.1,1.4c0,0.6-0.4,0.9-0.6,0.9c-0.4,0-0.4-0.4-0.2-0.6c0.8-1-0.6-0.6-1.9,0.6c-0.8,0.8-2.3,1.5-3.4,1.7
		c-1.9,0.4-3.4,1.3-7.8,4.6c-2.5,1.9-6.7,4.2-6.1,3.3c0.2-0.4,0.2-0.6,0-0.6c-0.2,0-0.8,0.4-0.9,1c-0.4,0.8-1.9,1.7-3.4,2.5
		c-1.5,0.6-2.9,1.3-3.1,1.5c-0.2,0.2-0.6,0.4-0.9,0.4s-1,0.4-1.5,0.9c-0.4,0.6-1.5,1.1-2.5,1.1l-1.5,0.4l1.3-1.1
		C745,781.4,746.3,780.6,747.1,780z M742.2,781.2c0.6-0.2,1.1-0.4,1.1-0.2c0,0.2-0.6,0.6-1.1,0.8c-0.6,0.4-1.1,0.4-1.1,0.4
		C741,781.9,741.6,781.5,742.2,781.2z M740,784.6c2.3-1.5,3.1-1.5,1.4,0.2c-0.8,0.6-1.7,1.1-2.3,1.1
		C738.5,785.9,738.9,785.4,740,784.6z M724,795.7c4.8-3.6,9.7-6.9,10.1-6.5c0.2,0.2,0.4,0,0.4-0.4c0-0.2,0.4-0.4,0.6-0.2
		c0.8,0.6-3.1,3.4-4.6,3.4c-1.5,0.2-2.9,1.1-2.5,1.9c0.2,0.2-0.2,0.6-0.8,0.9c-0.8,0.6-0.8,0.6-0.6,0.2c0.8-1.1-0.4-1-1.5,0.2
		c-0.6,0.6-0.9,1-0.6,1.1c0.2,0,0,0.2-0.4,0.8c-0.4,0.4-1.1,0.6-1.7,0.6C721.5,797.8,721.9,797.4,724,795.7z M709.7,805
		c1.7-0.9,1.7-0.9-0.4,1c-1.4,1.1-2.5,2.1-2.5,2.1C706,808.1,708.1,806,709.7,805z M720.8,798.7c0.2,0.8-6.9,7.1-8,7.3
		c-0.4,0-3.1,2.1-5.7,4.6c-2.9,2.5-5.2,4.2-5.2,4C701.8,813.6,720.6,798,720.8,798.7z M700.1,816.1c0.4-0.4,0.8-0.8,1-0.8
		c0.2,0,0,0.4-0.4,0.8c-0.6,0.4-1,0.8-1.1,0.8C699.6,816.9,699.7,816.5,700.1,816.1z M697.4,819c0.6-0.6,1.1-1.1,1.4-1.1
		c0.2,0-0.2,0.6-0.8,1.1c-0.6,0.6-1.1,0.9-1.3,0.9C696.5,819.9,696.9,819.6,697.4,819z M694.8,821.8c0.4-0.6,0.9-0.9,0.9-0.9
		c0.2,0,0,0.4-0.4,0.9c-0.4,0.4-0.8,0.8-0.9,0.8C694.2,822.6,694.4,822.2,694.8,821.8z M685.4,891.6c-0.2-0.4,0-0.6,0.6-0.2
		c0.4,0.2,0.8,0.4,0.8,0.6C686.7,892.3,685.6,891.9,685.4,891.6z M695.3,895.8c-2.3-0.2-4-0.6-4-1.1c0.2-0.2,0.9-0.2,1.9,0
		c0.9,0.4,2.1,0.8,2.7,1C696.7,895.8,696.5,896,695.3,895.8z M699.9,897.3c-1.5,0-2.1-0.4-2.1-1.3c0-0.6,1.4-0.4,2.5,0.6
		C701.3,897.5,701.3,897.5,699.9,897.3z M715.2,897.5c-0.8,0.2-3.1,0.2-5,0.2c-1,0-1.7,0-2.1,0c0.8-0.2,1.7-0.4,2.1-0.6
		c0.6-0.2,1.1-0.4,1.4-0.4c0.4,0,0.9,0,1.5-0.2c1.9-0.6,3.2-0.6,3.4,0C716.5,897.1,716.2,897.5,715.2,897.5z M724.4,895.8
		c-3,0.8-8,1.5-6.5,0.8c0.4,0,1.3-0.6,1.7-0.9c0.6-0.6,1-0.6,1-0.2c0.2,0.6,0.4,0.6,0.9,0.4c0.2-0.4,1.7-0.6,3.2-0.6l2.9-0.2
		L724.4,895.8z M731.1,894.2c-1.9,0.4-2.9,0.2-2.3-0.2c0.2-0.8,3.4-1,3.4-0.4C732.2,893.9,731.6,894.1,731.1,894.2z M744.4,890.1
		c-0.6,0.4-1.1,0.4-1,0.2c0,0-1.1,0.2-2.3,0.8c-3.2,1.3-5.5,1.7-5.5,0.9c0-0.6,3.4-1.7,5.2-1.7c0.2-0.2,0.6-0.2,0.8-0.6
		c0.2-0.2,1-0.2,1.5-0.2c0.6,0,1.5-0.2,1.9-0.6c0.6-0.4,0.6-0.4,0.6,0S745,889.9,744.4,890.1z M754.9,885.1
		c-0.6-0.6-2.7,0.2-2.3,0.9c0,0.4-0.6,1-1.4,1.1c-1.5,0.8-1.5,0.8-1.9,0.2c-0.4-0.6,1.4-1.5,5.4-3.4c3.6-1.9,3.6-1.9,3.6-0.8
		C758.2,884.1,755.5,885.6,754.9,885.1z M758.8,882.6c0.2-0.6,0.4-1.1,0.4-1.4c0,0,0.4,0.2,0.6,0.6c0.2,0.6,0.2,0.9,0.2,1.3
		C759.3,883.9,758.6,883.6,758.8,882.6z M780.3,871c-2.3,2.1-3.2,2.7-4.4,2.5c-0.2-0.2-0.6,0.2-0.8,0.8c-0.6,1.3-12.4,7.4-12.8,6.7
		c-0.4-0.8-0.4-0.6-0.8,0.6c0,0.2-0.2,0.8-0.4,0.8c-0.6,0.6-0.2-1,0.4-1.7c0.2-0.4,0.8-0.6,1.1-0.6c1.4,0.4,1.9,0.2,2.1-0.6
		c0-1.1,3.2-2.9,4-2.3c0.4,0,0.4,0,0.2-0.4c-0.2-0.4,0.8-1.3,2.1-2.1s2.7-1.7,3.1-1.9c3.1-1.9,4.8-3.1,5.2-3.1
		c0.2,0,0.9-0.4,1.9-0.9C783.8,867.1,783.2,868.3,780.3,871z M786.5,866.9c-0.6,0.6-0.8,0.4-0.4-0.2c0.4-0.8,1.3-1.3,1.3-0.6
		C787.4,866.2,787,866.6,786.5,866.9z M797.4,858.3c-0.2,0.2-1.1,0.9-1.9,1.9c-0.8,0.8-2.5,2.3-3.8,3.4c-2.9,1.9-5.3,2.5-4,0.8
		c0.4-0.6,1.7-1.7,2.9-2.5c1.4-0.8,3.3-2.1,4.6-3.1c1.1-0.9,2.5-1.5,2.5-1.3C797.7,857.8,797.7,858.1,797.4,858.3z M823.3,836.6
		c-3.2,3.4-3.2,3.4-14.7,13c-4.8,4-9.2,7.4-9.6,7.3c-0.6,0,0.2-1,2.5-2.7c2.9-2.3,9.2-7.8,21-18.3c1.7-1.5,3.3-2.7,3.3-2.5
		C826,833.5,824.9,835,823.3,836.6z M832.3,827.4c-4,4-5.5,5.6-5.5,5.2c0-0.6,4.8-6.1,6.3-7.3C835,823.8,834.4,824.9,832.3,827.4z
		 M839.6,819c-0.8,0.8-1.7,1.7-2.1,2.3c-0.4,0.6-0.8,0.8-0.8,0.4c0-0.6,2.1-3.3,3.3-3.8C841.1,817.1,840.7,817.8,839.6,819z
		 M843.6,813.8c-0.8,1.1-1.7,2.3-2.1,2.7s0-0.6,1.1-2.1C844.9,811.2,845.7,810.8,843.6,813.8z M887.1,755.2c0.4,0,0.6-0.4,0.6-0.8
		c0-0.6,0.2-0.8,0.6-0.6c0.4,0.2,0.2,0.8-0.2,1.4c-0.7,1.1-1.3,1.5-1.3,0.6C886.7,755.6,886.9,755.2,887.1,755.2z M911.7,752.9
		c-0.6-0.8-0.6-0.9,0-1.3c0.6-0.6,0.8-0.4,0.9,0.4C913.1,753.3,912.5,753.8,911.7,752.9z M920.5,741.6c0.2,0.4-0.2,0.6-0.7,0.6
		c-0.8,0-3.3,2.5-7.5,7.1c-3.6,3.8-6.5,7.1-6.7,7.1c-0.4,0,5.2-6.1,10.7-11.9c3.4-3.4,5.7-5.7,5.2-5
		C920.9,740.3,920.5,741.2,920.5,741.6z M928.4,724.2c-2.1,4.8-2.7,5.5-7.9,10.9c-4.8,4.8-5.3,5.5-4.6,6.3c0.6,0.8,0.6,0.9-0.8,0.8
		c-1.4-0.2-2.1,0.6-6.9,5.7c-3.2,3.6-5.2,6.1-5,6.5c0.4,0.4,0.4,1.1,0,1.7c-0.2,0.6-0.4,0.8-0.4,0.4c-0.2-2.3-2.5,0.2-12.6,12.4
		c-5.3,6.3-6.5,7.4-6.5,6.5c0-1.1,9.2-16.8,11.1-18.9c0.4-0.6,3.1-4,5.9-7.8c2.7-3.6,6.5-8.4,8.6-10.5c6.5-7.1,8.6-9.5,8.6-10.7
		c0-0.4,0.2-1.1,0.6-1.3c0.6-0.2,0.6,0,0.4,0.6c-0.6,1.1,0.4,1.1,1.5-0.2c1.4-1.5,9.6-8.2,9.9-8
		C930.5,718.7,929.5,721.2,928.4,724.2z M1003.2,726.2c1.3-1.5,2.1-2.1,1.5-1.4c-1.5,2.7-4.4,5.5-4.4,5
		C1000.3,729.4,1001.7,727.9,1003.2,726.2z M996.2,735.3c0.9-0.9,1.3-1.3,0.9-0.8c-0.8,1.7-2.7,4-2.7,3.2
		C994.4,737.6,995.2,736.5,996.2,735.3z M993.9,739.3c0,0-0.6,1-1.4,2.1c-0.8,0.9-1.3,1.5-1.3,1.3
		C991.2,742.2,993.9,738.8,993.9,739.3z M984.9,755.2c-0.3,0.6-0.6,1.3-1,2c-0.5,0.5-1.1,1.1-1.8,1.7c2.2-5,4.4-9.3,5.4-10.2
		C988.5,747.7,987.4,750.8,984.9,755.2z M976.1,781.2l0.2-3.6c0-0.6,0.1-1.5,0.3-2.4c0.3-0.3,0.6-0.5,0.9-0.8c-0.2,1-0.4,2-0.6,2.8
		L976.1,781.2z M1115.5,753.9C1115.5,753.8,1115.5,753.8,1115.5,753.9C1115.5,753.8,1115.5,753.8,1115.5,753.9z M1087.7,782.3
		c-2.3,1.9-6.1,4.8-8.6,6.7c-5.2,3.4-6.9,4.6-5,2.9c0.6-0.6,1.1-1.4,1.1-1.5c0-0.8,3.6-4,10.1-8.8c2.9-2.3,5.9-4.8,6.9-5.5
		c1-0.8,2.1-1.3,2.3-1.1c0.2,0.2,0.2,0.2,0.2-0.2c-0.2-0.2,1.1-1.9,3-3.6c1.7-1.9,5.7-6.1,9-9.4c1.5-1.6,2.6-2.8,3.5-3.6
		c-1.3,2-3,4.4-4.3,5.9c-0.7,0.9-1.8,2.7-2.4,4c-4.1,4.4-9,9.1-10.6,10.3C1092.2,778.7,1089.9,780.6,1087.7,782.3z M1100.8,774.7
		c-2.3,3-2.7,4-2.3,5c0.2,1,0,2.1-1,3.8c-0.6,1.5-1.1,3.1-1.1,3.6c0,0.8-0.2,0.8-0.6,0.2c-0.8-1.1,0.4-6.5,2.1-10.1
		c0.5-1.1,0.9-1.9,1.2-2.5c1.3-1.2,2.6-2.4,3.9-3.7C1102.7,771.7,1102,772.9,1100.8,774.7z M1139.4,752.9c-0.6-0.8-0.6-0.9,0-1.3
		c0.6-0.6,0.8-0.4,0.9,0.4C1140.7,753.3,1140.2,753.8,1139.4,752.9z M1148.2,741.6c0.2,0.4-0.2,0.6-0.7,0.6c-0.8,0-3.3,2.5-7.5,7.1
		c-3.6,3.8-6.5,7.1-6.7,7.1c-0.4,0,5.2-6.1,10.7-11.9c3.4-3.4,5.7-5.7,5.2-5C1148.6,740.3,1148.2,741.2,1148.2,741.6z M1156,724.2
		c-2.1,4.8-2.7,5.5-7.9,10.9c-4.8,4.8-5.3,5.5-4.6,6.3c0.6,0.8,0.6,0.9-0.8,0.8c-1.4-0.2-2.1,0.6-6.9,5.7c-3.2,3.6-5.2,6.1-5,6.5
		c0.4,0.4,0.4,1.1,0,1.7c-0.2,0.6-0.4,0.8-0.4,0.4c-0.2-2.3-2.5,0.2-12.6,12.4c-5.3,6.3-6.5,7.4-6.5,6.5c0-1.1,9.2-16.8,11.1-18.9
		c0.4-0.6,3.1-4,5.9-7.8c2.7-3.6,6.5-8.4,8.6-10.5c6.5-7.1,8.6-9.5,8.6-10.7c0-0.4,0.2-1.1,0.6-1.3c0.6-0.2,0.6,0,0.4,0.6
		c-0.6,1.1,0.4,1.1,1.5-0.2c1.4-1.5,9.6-8.2,9.9-8C1158.1,718.7,1157.1,721.2,1156,724.2z M1225.3,732.8c-0.6,1.3-1.4,2.7-1.7,3.1
		c-0.6,1.1,1-3.1,1.9-4.4C1226.1,730.7,1225.9,731.3,1225.3,732.8z M1223,737.8c-0.2,1.1-0.6,1.4-0.8,0.4c0-0.2,0.2-0.8,0.6-0.9
		C1223.2,737,1223.2,737.2,1223,737.8z M1218.8,748.7c-1.2,3.2-2.2,5.8-3,7.7c-0.3,0.2-0.5,0.5-0.8,0.7c1.9-5.3,6.6-16.9,7-17.4
		C1222.3,739.3,1220.9,743.4,1218.8,748.7z M1213.3,758.6c-0.2,0.1-0.3,0.2-0.4,0.2c0-0.1,0.3-0.7,0.8-1.3
		C1213.6,757.8,1213.5,758.2,1213.3,758.6z M1306.5,663.3c-0.4,0.9-0.9,1.7-1.1,1.7c-0.4,0,0.8-2.5,1.4-2.9
		C1307.1,661.8,1306.9,662.4,1306.5,663.3z M1294.1,637c8.2-9.4,14.5-15.9,20.1-20.8c1.9-1.7,4.2-3.8,5.2-4.8
		c0.8-0.8,2.3-1.9,3.4-2.7l1.9-1.3l-0.6,4c-0.6,4.2-2.1,8.4-3.4,9.7c-0.4,0.4-0.6,0.9-0.4,1.1c0.4,0.6-0.2,1.9-6.9,15.1
		c-6.3,12.2-12.4,23.1-20.6,36.7c-9,15.1-11.1,18.3-14.5,22.5c-1.7,2.1-4.6,6.1-6.1,8.8c-1.7,2.7-4.2,6.1-5.3,7.7
		c-1.4,1.7-6.3,8.6-11.3,15.3c-14,19.3-26,33.6-34,40.5c-2.9,2.5-3.1,2.5-2.7,0.9c0.6-2.5,8.2-22.3,9.9-26.6
		c5.4-11.3,7.1-15.3,7.3-17c0.4-1.5,7.4-14.9,15.3-28.7c3.8-6.5,12.8-20.1,15.5-23.3C1267.6,673.4,1290.1,641.7,1294.1,637z
		 M1228.4,726c0-0.1,0-0.2,0-0.4c-0.2-0.4,0.2-0.9,0.8-1.5c0.8-0.8,0.8-0.8,0.2,0.4C1229,725.2,1228.6,725.8,1228.4,726z
		 M1233.7,714.1c0-0.4,0.4-1.1,1-1.9l1.1-1.1l-0.7,1.7C1234.1,714.5,1233.7,714.9,1233.7,714.1z M1239.3,704.6
		c0.4-0.2-0.2,1.1-0.9,2.9c-1,1.7-1.7,3.2-2.1,3.2C1235.7,710.7,1238.5,705.1,1239.3,704.6z M1240.6,702.5c0-0.8,0.9-2.5,1.9-3.8
		c0.9-1.3,1.7-2.7,1.7-2.9c0-0.2,0.2-0.4,0.6-0.4s-0.4,1.3-1.3,3.1c-1.1,1.7-2.3,3.6-2.5,4.4
		C1240.2,703.8,1240.2,703.8,1240.6,702.5z M1245.2,694.1c0-0.2,0.4-0.8,0.6-1c0.2-0.2,0.4,0,0.2,0.6
		C1245.6,694.8,1245.4,695,1245.2,694.1z M1248.6,687.2c0-0.4,0.4-0.9,1-1.5c0.8-0.8,0.9-0.8,0.2,0.4c-0.4,0.8-0.8,1.3-0.9,1.5
		C1248.8,687.7,1248.8,687.6,1248.6,687.2z M1265.1,670.2c1-1.5,1.4-1.7,1.4-1c0,0.2-0.6,1-1.1,1.4
		C1264.1,671.5,1264.1,671.5,1265.1,670.2z M1219.2,740.1c7.7-18.1,19.9-41.5,29.6-56.3c5.2-7.8,14.5-21.2,14.9-21.2
		c0,0-0.4,0.9-1,2.1c-0.8,1-1.3,2.1-1.3,2.3c0,0.4-2.3,3.4-5.2,7.3c-2.9,3.8-5.9,8-6.7,9.7c-1,1.5-1.9,3.1-2.3,3.4
		c-0.4,0.2-0.6,1-0.6,1.5c0,0.8,0,0.8,0.8,0c1-0.8,1-0.8,0.4,0.2c-0.4,0.6-0.9,1.1-1.3,1.1c-0.6,0-2.5,2.5-2.3,3.1
		c0,0.4-0.8,1.5-1.7,2.5c-0.8,0.9-1.4,2.1-1.4,2.3c0,0.2-1.5,3.1-3.4,6.1c-1.7,3.1-3.6,6.5-4,7.5c-0.4,1.1-2.5,5.3-4.4,9.2
		c-2.1,4.2-4.2,8.8-5,10.3c-0.6,1.7-1.7,4.2-2.5,5.5c-0.6,1.4-1.7,4.2-2.5,6.3c-0.9,1.9-2.3,5.3-3.2,7.6c-0.5,1.4-1.2,3-1.6,4.3
		c-0.3,0-0.7,0.3-1.5,0.9C1214.9,750.8,1217.4,744.3,1219.2,740.1z M1204.5,795.5c-0.6,1.7-0.9,2.9-0.9,2.3c0-0.6,0.2-2.3,0.8-4.2
		c0.4-1.7,0.8-2.7,0.9-2.1C1205.3,791.9,1204.9,793.8,1204.5,795.5z M1207.4,783.5c-1,3.4-1.7,6.5-1.9,6.7c-0.6,0.8-0.2-1.5,0.9-5.2
		c0.6-2.1,1.1-4.2,1.1-4.6s0.2-1.1,0.6-1.9C1208.5,777.7,1208.3,780,1207.4,783.5z M1287.8,790.7c-3.1,3.8-9.2,11.1-13.9,16
		c-2.1,2.1-7.7,6.9-8.2,6.9c-0.2,0,0-0.6,0.4-1.1c0.6-0.6,0.9-1.5,1.1-2.3c0.2-0.6,1.9-2.7,4.2-4.6c4.4-4.3,21.4-25.2,29.1-35.7
		c-0.3,1.1-0.6,2.2-0.8,3c-0.2,0.8-0.5,1.9-0.8,3.3C1295.9,780,1292.1,784.9,1287.8,790.7z M1360.9,756.7c-0.8,0-1.3-0.2-1.3-0.6
		c0-0.4,0.2-0.6,0.9-0.4c0.8,0.2,1.4,0.6,1.5,0.6C1362.1,756.3,1361.7,756.5,1360.9,756.7z"/>
</g>
</svg>
